<?xml version="1.0" encoding="UTF-8" standalone="no"?>
<!DOCTYPE svg PUBLIC "-//W3C//DTD SVG 1.1//EN" "http://www.w3.org/Graphics/SVG/1.1/DTD/svg11.dtd">
<svg width="100%" height="100%" viewBox="0 0 740 887" version="1.1" xmlns="http://www.w3.org/2000/svg" xmlns:xlink="http://www.w3.org/1999/xlink" xml:space="preserve" xmlns:serif="http://www.serif.com/" style="fill-rule:evenodd;clip-rule:evenodd;stroke-linejoin:round;stroke-miterlimit:2;">
    <g id="Artboard1" transform="matrix(0.904645,0,0,0.939619,-389.9022,-1225.262712)">
        <rect x="431" y="1304" width="818" height="944" style="fill:none;"/>
        <clipPath id="_clip1">
            <rect x="431" y="1304" width="818" height="944"/>
        </clipPath>
        <g clip-path="url(#_clip1)">
            <g transform="matrix(1.109723,0,0,1.068419,275.137838,1210.344983)">
                <path d="M216.482,95.629C264.929,103.83 264.984,102.689 313.426,110.926L318.402,111.93C322.404,112.922 326.407,113.914 330.409,114.906L332.505,115.472L334.446,115.833C343.121,117.268 352.139,120.818 357.535,116.29C358.1,116.511 358.664,116.731 359.229,116.952C361.023,145.098 350.199,160.077 334.41,187.443C327.892,196.827 328.145,196.862 320.361,205.356C315.098,209.253 315.264,209.129 309.386,212.246C304.496,214.025 304.557,213.842 299.445,215.212C296.133,215.517 292.821,215.821 289.508,216.125L287.512,216.094L286.51,216.08L280.493,216.071L276.526,216.019C258.878,214.027 259.021,214.13 241.497,210.515C189.574,197.168 182.491,191.925 167.606,152.469C167.584,152.357 161.177,131.21 165.948,114.616C168.887,104.391 169.558,104.661 177.457,97.457C186.769,88.964 197.337,93.07 216.482,95.629Z" style="fill:rgb(253,253,253);"/>
                <path d="M183.479,90.392C194.032,90.381 193.901,90.128 204.475,90.721L206.462,90.923C209.807,91.453 213.152,91.983 216.497,92.513C216.003,94.055 215.975,93.985 216.482,95.629C197.337,93.07 186.769,88.964 177.457,97.457C169.558,104.661 168.887,104.391 165.948,114.616C161.177,131.21 167.584,152.357 167.606,152.469C165.843,151.934 165.929,152.008 164.25,152.565L163.735,150.447L162.72,145.459L162.2,142.545C161.854,137.858 161.508,133.17 161.162,128.482L161.501,123.5C164.208,110.949 165.649,110.223 164.572,110.324C163.165,110.455 163.561,110.843 158.153,119.291C154.854,125.301 154.889,125.122 152.276,131.425L151.277,134.427L150.609,136.53L150.107,138.395C149.424,142.081 148.741,145.767 148.057,149.453L147.606,155.505L147.591,166.499C147.87,169.502 148.149,172.506 148.428,175.509C149.529,180.476 149.489,180.326 150.924,185.363L152.376,189.542C153.57,192.797 154.763,196.051 155.956,199.305L158.321,204.579C162.195,212.798 161.996,212.731 166.5,220.5L169.109,224.744C169.944,225.969 170.778,227.193 171.613,228.418L173.227,230.693L174.521,232.485L176.208,234.729L177.578,236.436L179.351,238.619C181.336,240.972 183.321,243.324 185.306,245.676L188.175,248.802L191.511,252.491L193.434,254.562C195.756,256.911 198.078,259.259 200.399,261.608L202.459,263.544L204.519,265.48C205.381,266.291 206.243,267.102 207.105,267.913C230.268,288.409 231.807,290.313 264.384,311.686L268.18,313.998C281.133,321.819 281.04,321.642 294.354,328.793L297.564,330.365C297.135,331.227 296.707,332.09 296.279,332.953C241,305.001 180.12,257.72 156.938,208.297C156.497,207.359 156.563,207.413 151.882,196.36L150.793,193.397C149.498,189.397 148.203,185.396 146.907,181.395L145.96,177.393C145.624,174.755 145.287,172.118 144.951,169.481L144.863,167.484L144.759,161.501C144.99,156.832 145.222,152.163 145.453,147.494C146.13,144.161 146.806,140.828 147.482,137.495C148.776,133.809 150.069,130.123 151.363,126.438L154.413,120.45C156.118,117.807 157.824,115.164 159.529,112.521L162.586,108.572C177.468,92.27 181.991,91.022 183.479,90.392Z" style="fill:rgb(29,29,30);"/>
                <path d="M536.583,118.243L538.379,118.84L543.45,120.639C549.129,122.937 554.807,125.235 560.486,127.533C567.978,130.933 567.987,130.471 587.259,139.934L594.385,143.718C600.406,147.009 606.427,150.301 612.448,153.592L614.401,154.682L618.26,156.894L621.314,158.792C638.468,169.55 638.45,169.241 664.292,186.807L667.231,188.861C718.949,225.786 719.921,224.039 764.894,257.027L763.43,258.605C754.548,252.411 680.651,200.879 651.773,182.09L649.505,180.493C645.255,177.695 641.006,174.898 636.756,172.1L634.434,170.602L633.721,170.156L631.391,168.684C611.312,156.268 611.373,156.508 590.579,145.339C587.26,143.643 583.94,141.947 580.62,140.251L574.573,137.336L572.54,136.41C568.876,134.737 565.212,133.063 561.548,131.39L557.42,129.693L551.582,127.282L546.571,125.329L541.565,123.321L534.404,120.784C535.131,119.937 535.857,119.09 536.583,118.243Z" style="fill:rgb(16,16,16);"/>
                <path d="M582.659,463.606C600.32,484.036 604.136,487.713 628.377,500.738C631.756,502.316 635.134,503.893 638.512,505.47L641.434,506.661C656.5,512.215 656.177,512.971 680.4,518.975L684.433,519.846L687.511,520.444L690.417,520.972L694.444,521.788L695.424,521.939L699.467,522.696L701.441,522.945L706.46,523.774L707.448,523.884L710.528,524.324L714.46,524.845L715.446,524.939L718.516,525.396C723.828,525.931 729.14,526.465 734.452,527C737.796,527.261 741.139,527.523 744.483,527.785L747.466,527.945C752.475,528.189 757.485,528.433 762.494,528.677L766.49,528.813L775.492,528.916C795.215,528.787 795.014,529.101 814.504,527.827C815.081,527.789 834.443,526.523 821.521,529.555C819.84,529.735 818.158,529.916 816.477,530.096L811.482,530.343C808.83,530.464 806.179,530.585 803.527,530.706C791.976,531.272 792.126,531.222 780.498,531.311L775.499,531.293C754.345,531.059 754.536,530.709 744.519,530.276L740.519,530.069C727.439,528.967 727.584,528.896 714.487,527.61L709.553,527.007C668.618,520.726 663.97,517.819 641.666,510.083L636.369,507.799C631.159,505.225 625.949,502.65 620.74,500.075L618.379,498.705C617.582,498.226 610.753,494.132 608.47,492.628L606.398,491.563C593.531,479.058 593.118,479.631 581.673,465.789L581.778,464.646L582.659,463.606Z" style="fill:rgb(36,36,36);"/>
                <path d="M589.802,592.466L590.916,602.455L591.2,604.545C597.802,652.401 603.305,676.183 614.355,713.545L615.035,715.65L617.541,723.485L620.084,730.649L623.325,739.573L624.17,741.634C627.478,749.782 627.222,749.751 630.843,757.341C629.033,759.021 629.334,759.889 626.826,759.378C620.861,741.838 616.641,729.967 615.734,727.417L614.732,724.429L613.773,721.412L612.831,718.408L610.77,711.422L608.973,705.37C607.798,701.084 606.623,696.799 605.448,692.514L604.634,689.463C603.069,683.109 601.504,676.755 599.939,670.401L598.991,666.383L596.938,657.395L596.513,655.497L595.916,652.421L595.529,650.494L594.949,647.424L594.588,645.481L592.843,635.441L591.776,628.464C590.498,620.097 590.393,620.238 589.454,612.506L587.884,601.448L587.081,594.554C588.028,593.194 588.128,593.477 589.802,592.466Z" style="fill:rgb(32,32,32);"/>
                <path d="M297.564,330.365C301.469,332.234 305.375,334.103 309.281,335.973C319.978,340.451 319.723,340.601 330.4,344.765L333.335,345.91L335.425,346.706L341.413,348.75C345.747,350.102 350.082,351.454 354.416,352.806L358.384,353.914C362.068,354.87 365.753,355.826 369.437,356.783L374.409,357.921L383.416,359.874C388.753,360.877 394.09,361.88 399.427,362.884L410.434,364.844C425.443,367.221 425.268,367.228 440.46,368.946L442.526,369.18L441.803,370.542C441.689,371.272 441.574,372.003 441.46,372.734C436.143,371.969 430.826,371.204 425.509,370.44L424.531,370.295L414.474,368.674L412.518,368.386C410.515,368.005 387.746,363.674 387.476,363.621L378.453,361.707C374.124,360.688 369.794,359.669 365.464,358.65L361.468,357.598C349.366,354.095 349.506,354.135 337.556,350.339L328.345,346.901C317.223,342.56 317.413,342.653 306.398,337.744L304.355,336.841L296.279,332.953C296.707,332.09 297.135,331.227 297.564,330.365Z" style="fill:rgb(34,35,35);"/>
                <path d="M577.495,457.51L581.51,459.479C581.115,462.212 581.309,462.013 581.778,464.646L581.673,465.789C581.165,467.719 581.439,467.628 581.881,475.466L581.927,476.467L582.296,482.515C582.631,489.846 582.966,497.176 583.301,504.507L583.824,515.494C584.575,530.606 584.572,530.453 585.527,545.499L585.6,546.494L585.923,551.463L586.149,554.535L586.696,559.481L586.848,561.474C587.116,564.478 587.384,567.482 587.653,570.485L587.738,571.482L588.515,580.498L588.632,581.485L589.802,592.466C588.128,593.477 588.028,593.194 587.081,594.554C586.354,587.525 585.627,580.496 584.9,573.467L584.597,569.493L584.318,565.514L583.573,557.494C583.141,551.5 582.71,545.505 582.279,539.511L581.945,534.47C581.195,521.252 581.251,521.411 580.289,501.511C580.384,499.752 580.024,499.78 579.222,479.509L579.177,478.512L578.695,467.493C578.616,463.884 579.6,463.584 577.216,460.959L577.495,457.51Z" style="fill:rgb(28,28,28);"/>
                <path d="M714.485,579.54C707.473,576.645 690.542,570.438 667.442,556.588C651.85,547.24 651.564,547.052 651.515,545.5C651.289,538.407 674.661,568.409 745.491,586.542L746.427,586.767C759,589.556 761.898,590.95 780.466,592.834C781.452,592.934 805.99,595.424 792.418,596.108C768.501,597.313 720.54,581.532 714.485,579.54Z" style="fill:rgb(126,126,127);"/>
                <path d="M178.856,157.404C176.13,142.938 175.359,143.143 175.216,128.502C174.99,105.469 184.288,96.998 184.642,96.944C189.736,96.164 177.013,103.772 177.86,128.489C179.532,177.276 197.011,186.07 208.651,192.243C220.414,198.481 256.142,208.432 233.498,203.514C182.109,192.354 179.859,160.562 178.856,157.404Z" style="fill:rgb(67,67,68);"/>
                <path d="M164.25,152.565C165.929,152.008 165.843,151.934 167.606,152.469C182.491,191.925 189.574,197.168 241.497,210.515C241.146,211.59 240.795,212.665 240.444,213.741L237.578,213.104L233.586,212.179L231.473,211.602L225.615,210.084L221.399,208.837L219.568,208.282L215.633,207.056L213.548,206.363L203.609,202.261L201.609,201.287C185.854,192.29 182.33,190.223 172.792,174.344L171.788,172.359C167.813,162.523 167.687,162.755 164.25,152.565Z" style="fill:rgb(12,13,13);"/>
                <path d="M216.497,92.513L220.556,93.237C225.852,94.118 231.148,94.998 236.444,95.879L240.503,96.477L243.455,96.856L246.527,97.314C252.838,98.161 259.148,99.009 265.458,99.856L269.5,100.501L272.457,100.851L276.499,101.51L279.442,101.892L282.51,102.433C288.188,103.358 293.866,104.284 299.544,105.21L302.478,105.649L304.434,105.929L308.49,106.575L310.44,106.855L318.547,108.166C316.209,110.186 316.291,109.978 313.426,110.926C264.984,102.689 264.929,103.83 216.482,95.629C215.975,93.985 216.003,94.055 216.497,92.513Z" style="fill:rgb(20,20,20);"/>
                <path d="M462.242,359.417L461.227,362.392L460.144,365.36C460.02,365.611 458.596,368.5 458.596,368.5C458.122,369.921 459.107,369.259 462.499,369.471C465.177,369.23 467.855,368.988 470.533,368.746L472.49,368.441C479.604,366.728 479.51,366.867 486.537,364.593L490.631,362.798C505.74,354.503 505.258,353.993 517.759,341.923C517.963,341.726 520.533,341.976 517.436,345.455C503.223,361.422 489.434,366.099 486.488,367.472C484.798,368.036 483.108,368.601 481.418,369.165L480.48,369.414C471.985,371.182 472.073,370.988 463.469,372.101L460.743,371.961L459.922,371.631L458.521,371.496C456.741,373.753 454.609,372.78 455.486,375.593L452.395,374.955C449.451,374.344 446.508,373.732 443.564,373.12L442.431,372.888L441.46,372.734C441.574,372.003 441.689,371.272 441.803,370.542C444.206,372.291 444.221,371.998 447.356,371.704C455.506,376.356 453.642,370.23 453.48,369.742C457.507,369.523 456.312,367.861 458.242,363.415L458.558,362.519C470.384,330.549 470.511,327.418 472.192,329.709C473.054,330.883 469.941,337.414 462.242,359.417Z" style="fill:rgb(69,69,69);"/>
                <path d="M749.553,523.654C748.159,520.547 748.031,519.14 751.543,519.147C760.032,519.163 759.262,513.074 767.445,515.637C771.675,516.962 784.596,511.884 785.533,517.496C786.173,521.333 789.104,519.503 790.557,524.308C789.672,524.348 783.483,524.628 779.497,523.805L774.498,523.95L771.451,523.919C764.647,523.942 764.74,523.886 749.553,523.654Z" style="fill:rgb(254,254,254);"/>
                <path d="M504.273,131.352L502.2,134.304L500.255,137.367C496.473,145.359 496.541,145.2 493.29,153.427L492.23,156.407L491.192,159.395L489.391,164.464L488.14,168.392L486.123,175.396L485.284,178.441L484.306,182.457L484.128,183.424L483.282,187.457L483.119,188.429L482.327,192.466L482.184,193.441L481.53,197.504L481.116,201.458L480.797,204.54L480.572,206.509C480.546,208.101 480.252,226.336 480.233,226.404C476.9,238.226 478.35,205.332 478.431,203.495L478.823,199.525C479.515,194.873 480.207,190.221 480.899,185.57L481.29,183.459L482.171,179.428L483.353,174.462L484.493,170.498L485.354,167.458L486.571,163.522L487.282,161.423L488.035,159.347C491.96,149.079 492.031,149.341 496.292,139.383L497.37,137.419C503.21,128.932 502.939,128.862 505.753,125.771C523.173,106.629 504.562,130.992 504.273,131.352Z" style="fill:rgb(42,41,42);"/>
                <path d="M589.39,149.753L590.143,150.627L590.382,155.506C590.285,158.49 590.187,161.474 590.09,164.459L589.829,166.523C589.275,169.485 588.721,172.447 588.167,175.409L587.537,177.513C586.385,180.447 585.232,183.382 584.08,186.316L582.091,190.277L580.336,193.405L578.06,197.213C575.791,200.235 558.024,223.898 544.478,230.433C535.507,234.761 545.761,227.551 560.913,213.873L566.636,207.613C567.238,206.893 567.839,206.173 568.441,205.452C575.843,195.487 575.81,195.647 581.715,184.599L583.752,179.594L584.525,177.509L585.228,175.41C586.768,168.998 586.669,169.194 587.733,162.525L587.9,156.506C587.93,154.565 587.959,152.624 587.988,150.682C588.456,150.373 588.923,150.063 589.39,149.753Z" style="fill:rgb(51,51,51);"/>
                <path d="M458.521,371.496L459.252,372.535C460.218,373.317 461.185,374.098 462.152,374.88C467.864,379.511 473.575,384.142 479.286,388.774L482.171,390.948L483.28,391.797L491.162,397.916L494.403,400.616L502.301,406.761L509.103,411.988L510.203,412.879L511.315,413.745L518.608,419.355C518.241,422.625 518.232,422.607 518.228,422.88L514.718,420.224L512.492,418.511C510.093,416.671 510.114,416.685 482.695,395.268L480.502,393.497C458.092,375.787 457.828,376.177 455.486,375.593C454.609,372.78 456.741,373.753 458.521,371.496Z" style="fill:rgb(9,10,10);"/>
                <path d="M359.229,116.952C360.238,116.993 361.246,117.033 362.255,117.074C362.224,118.228 362.193,119.382 362.162,120.536C362.332,126.507 362.515,126.315 362.142,132.468C361.86,134.13 361.577,135.792 361.294,137.454C358.531,147.092 358.351,146.892 355.019,156.29L353.089,160.306L350.184,166.338L348.143,170.313L345.358,175.42L343.278,179.379L342.168,181.297L339.111,186.258L337.194,189.301L336.868,189.741C335.468,188.74 335.559,188.912 334.41,187.443C350.199,160.077 361.023,145.098 359.229,116.952Z" style="fill:rgb(26,26,26);"/>
                <path d="M518.608,419.355C533.853,430.42 533.783,430.311 549.286,440.837L557.258,445.885C562.283,448.859 567.309,451.833 572.334,454.807L574.308,455.861L577.495,457.51L577.216,460.959L576.456,460.579C548.059,445.002 541.686,439.603 522.703,426.231L520.465,424.547L518.228,422.88C518.232,422.607 518.241,422.625 518.608,419.355Z" style="fill:rgb(10,10,10);"/>
                <path d="M323.213,148.402C312.314,190.011 319.339,191.959 311.189,206.286C305.395,216.47 310.271,202.758 310.375,202.464C314.247,191.576 313.546,147.379 333.901,122.922C334.94,121.674 337.24,122.289 335.598,124.558C327.631,135.576 328.285,135.856 323.213,148.402Z" style="fill:rgb(107,106,106);"/>
                <path d="M549.022,147.261L547.327,150.414C545.671,154.091 544.015,157.768 542.359,161.445L541.496,163.498L540.651,165.562L538.467,171.489L537.151,175.377L535.455,180.486C526.855,209.497 528.959,210.221 527.318,212.269C527.202,212.413 526.023,213.572 525.828,210.493C525.979,209.496 526.129,208.499 526.28,207.501C528.738,195.461 528.666,195.586 531.79,183.576L533.284,178.43C537.261,166.746 537.192,166.946 541.906,155.702L543.48,152.489C543.79,151.965 564.985,116.99 549.022,147.261Z" style="fill:rgb(56,55,55);"/>
                <path d="M808.612,288.353C815.509,294.009 819.364,293.302 865.107,335.868C865.539,336.271 885.703,355.034 868.572,342.39C866.023,340.509 866.789,339.734 839.484,315.518C824.066,301.844 823.365,302.991 807.168,289.984L808.612,288.353Z" style="fill:rgb(158,158,158);"/>
                <path d="M606.398,491.563L608.47,492.628C607.536,497.596 608.194,497.502 608.527,502.495L609.143,505.591C611.238,512.844 611.409,512.666 614.545,519.476L616.373,522.582C626.226,535.716 627.303,534.566 639.154,545.769C643.795,550.157 633.736,546.035 625.429,537.574C611.34,523.225 609.635,514.839 607.759,510.42L606.683,506.461C606.341,504.14 605.999,501.819 605.657,499.498L605.532,497.501C605.554,497.022 605.715,493.491 606.398,491.563Z" style="fill:rgb(83,83,84);"/>
                <path d="M720.262,922.693C722.51,923.473 722.416,923.486 724.762,923.292C745.899,948.44 746.785,947.476 763.951,962.085L762.524,963.467L761.909,963.046L756.79,959.078C742.95,947.998 739.617,945 720.262,922.693Z" style="fill:rgb(35,36,36);"/>
                <path d="M489.501,112.947C493.84,113.044 498.179,113.141 502.518,113.238C517.177,114.37 517.049,113.982 531.452,116.681L536.583,118.243C535.857,119.09 535.131,119.937 534.404,120.784L533.502,120.495C530.092,119.548 507.816,113.36 489.498,116.035C489.329,114.393 489.333,114.561 489.501,112.947Z" style="fill:rgb(35,36,36);"/>
                <path d="M683.533,470.834C697.326,468.856 697.242,469.095 705.497,467.426C727.997,462.878 701.903,470.432 701.51,470.529L698.416,471.112L697.455,471.286L692.418,472.113C688.45,472.617 684.482,473.122 680.514,473.627L677.447,474.038L669.519,474.65L665.468,475.067L658.493,475.314C658.828,474.357 659.164,473.4 659.5,472.443L664.491,472.285L668.487,472.092L671.524,471.899L681.444,471.075L683.533,470.834Z" style="fill:rgb(61,61,62);"/>
                <path d="M749.553,523.654C764.74,523.886 764.647,523.942 771.451,523.919C772.986,524.3 772.91,524.33 774.498,523.95C777.054,524.947 777.001,524.558 779.497,523.805C783.483,524.628 789.672,524.348 790.557,524.308L798.522,524.368C794.5,529.559 775.619,521.7 775.492,528.916L766.49,528.813C766.293,526.003 765.481,526.435 763.25,526.278C756.035,526.117 756.225,525.861 749.167,525.634C749.088,524.539 749.182,524.74 749.553,523.654Z" style="fill:rgb(254,254,254);"/>
                <path d="M764.894,257.027C768.423,259.488 782.837,269.543 808.612,288.353L807.168,289.984C785.352,274.12 785.239,274.468 763.43,258.605L764.894,257.027Z" style="fill:rgb(42,42,41);"/>
                <path d="M241.497,210.515C259.021,214.13 258.878,214.027 276.526,216.019C276.19,217.065 275.854,218.11 275.518,219.156L271.457,218.904L267.515,218.397L265.549,218.149L264.552,218.051L261.488,217.561L258.568,217.069L255.486,216.591C250.472,215.641 245.458,214.691 240.444,213.741C240.795,212.665 241.146,211.59 241.497,210.515Z" style="fill:rgb(12,12,12);"/>
                <path d="M581.51,459.479L582.348,459.833L584.414,460.699C601.589,467.133 601.535,466.808 619.554,470.103C617.832,471.146 617.544,470.926 617.434,472.854L614.536,472.294L612.582,472.007L610.488,471.558L608.566,471.174L606.45,470.729L602.428,469.782L600.553,469.3C583.83,464.295 584.161,463.592 582.659,463.606L581.778,464.646C581.309,462.013 581.115,462.212 581.51,459.479Z" style="fill:rgb(20,20,20);"/>
                <path d="M703.735,895.334L709.526,903.481L711.201,905.721L715.058,910.826L717.188,913.73L718.524,915.481L720.275,917.677L724.762,923.292C722.416,923.486 722.51,923.473 720.262,922.693C709.143,908.889 709.466,908.894 700.543,896.469C701.607,896.091 702.671,895.712 703.735,895.334Z" style="fill:rgb(8,8,8);"/>
                <path d="M619.554,470.103L626.445,470.981L631.5,471.498L638.481,471.984L645.505,472.339L650.501,472.42C650.834,473.417 651.166,474.414 651.499,475.411C647.176,475.333 642.853,475.254 638.53,475.176L637.541,475.103L630.505,474.445L625.544,474.022L621.513,473.413L617.434,472.854C617.544,470.926 617.832,471.146 619.554,470.103Z" style="fill:rgb(15,15,15);"/>
                <path d="M331.465,109.728L332.444,109.853L335.532,110.288C339.179,110.764 342.826,111.241 346.473,111.718L349.542,112.195L355.447,112.911L358.519,113.313L364.544,114.059C364.198,115 363.851,115.941 363.504,116.882L362.255,117.074C361.246,117.033 360.238,116.993 359.229,116.952C358.664,116.731 358.1,116.511 357.535,116.29L353.526,115.236C348.546,114.479 343.565,113.721 338.585,112.964C338.294,112.992 334.339,111.089 333.255,114.541L332.505,115.472L330.409,114.906C330.761,113.18 331.113,111.454 331.465,109.728Z" style="fill:rgb(29,30,30);"/>
                <path d="M463.467,114.098C464.505,115.68 464.448,115.554 465.524,116.949C450.436,117.975 450.647,117.997 435.501,118.559C433.551,116.761 433.529,116.803 433.395,116.617C432.982,116.047 433.966,116.067 433.498,115.42C448.541,115.072 448.399,115.079 463.467,114.098Z" style="fill:rgb(30,31,31);"/>
                <path d="M396.498,118.712L401.499,118.741L409.501,118.744C414.169,118.741 418.836,118.739 423.504,118.737L434.501,118.579C434.646,121.542 432.869,121.47 397.5,121.024C395.671,121.001 395.802,120.396 396.498,118.712Z" style="fill:rgb(242,242,242);"/>
                <path d="M334.41,187.443C335.559,188.912 335.468,188.74 336.868,189.741C334.688,192.95 332.508,196.158 330.328,199.366L328.118,202.202C326.347,204.084 324.577,205.966 322.806,207.848C321.991,207.018 321.176,206.187 320.361,205.356C328.145,196.862 327.892,196.827 334.41,187.443Z" style="fill:rgb(8,8,8);"/>
                <path d="M489.501,112.947C484.83,113.046 480.159,113.146 475.488,113.246C474.232,110.352 475.465,110.048 478.5,110.031C491.001,109.961 500.5,108.829 502.518,113.238C498.179,113.141 493.84,113.044 489.501,112.947Z" style="fill:rgb(237,238,238);"/>
                <path d="M489.501,112.947C489.333,114.561 489.329,114.393 489.498,116.035C477.307,116.169 477.525,116.138 465.524,116.949C464.448,115.554 464.505,115.68 463.467,114.098L470.504,113.572L471.5,113.506L475.488,113.246C480.159,113.146 484.83,113.046 489.501,112.947Z" style="fill:rgb(41,41,41);"/>
                <path d="M364.544,114.059C369.203,114.424 373.862,114.789 378.521,115.154L379.516,115.213L388.5,115.442C387.385,116.896 387.426,116.771 387.499,118.535C375.386,117.767 375.499,117.952 363.504,116.882C363.851,115.941 364.198,115 364.544,114.059Z" style="fill:rgb(26,27,27);"/>
                <path d="M429.5,110.02C431.666,109.981 574.598,108.631 456.5,112.039C431.382,112.764 429.49,113.448 429.5,110.02Z" style="fill:rgb(255,254,255);"/>
                <path d="M683.903,865.247C687.15,870.302 690.396,875.358 693.643,880.414C692.594,880.777 691.545,881.14 690.495,881.503C687.04,876.596 683.585,871.69 680.13,866.783C681.251,864.618 681.501,864.666 683.903,865.247Z" style="fill:rgb(9,9,9);"/>
                <path d="M183.479,90.392C181.731,86.884 184.569,88.133 188.454,87.075C188.94,86.942 202.127,87.047 202.438,87.183C205.932,88.72 204.081,90.035 204.475,90.721C193.901,90.128 194.032,90.381 183.479,90.392Z" style="fill:rgb(245,245,245);"/>
                <path d="M582.296,482.515C582.472,482.26 584.49,479.333 584.49,479.333C586.064,478.286 585.973,497.749 585.965,499.355L585.624,500.464L585.51,501.5C584.774,502.502 584.037,503.505 583.301,504.507C582.966,497.176 582.631,489.846 582.296,482.515Z" style="fill:rgb(250,250,250);"/>
                <path d="M579.222,479.509C580.024,499.78 580.384,499.752 580.289,501.511C577.897,501.338 577.027,501.971 576.995,499.5C576.729,479.267 576.265,479.254 576.972,477.656C577.424,479.247 577.702,478.871 579.222,479.509Z" style="fill:rgb(246,246,246);"/>
                <path d="M693.643,880.414L697.173,885.728L697.628,886.411L699.236,888.685L703.735,895.334C702.671,895.712 701.607,896.091 700.543,896.469C697.194,891.48 693.844,886.492 690.495,881.503C691.545,881.14 692.594,880.777 693.643,880.414Z" style="fill:rgb(11,11,11);"/>
                <path d="M361.294,137.454C367.179,139.712 363.473,141.577 361.42,147.377C359.348,153.228 359.51,153.232 358.381,155.377C358.251,155.624 358.132,155.445 355.019,156.29C358.351,146.892 358.531,147.092 361.294,137.454Z" style="fill:rgb(243,242,243);"/>
                <path d="M338.585,112.964C335.565,119.345 341.537,114.778 348.5,115.915C349.77,116.122 351.001,116.89 352.276,116.717C352.917,116.631 352.886,115.322 353.526,115.236L357.535,116.29C352.139,120.818 343.121,117.268 334.446,115.833L333.255,114.541C334.339,111.089 338.294,112.992 338.585,112.964Z" style="fill:rgb(61,62,61);"/>
                <path d="M409.499,115.552C421.562,115.561 421.419,115.573 433.498,115.42C433.966,116.067 432.982,116.047 433.395,116.617C433.529,116.803 433.551,116.761 435.501,118.559L434.501,118.579L423.504,118.737C422.186,116.674 419.17,116.939 409.403,116.669L409.499,115.552Z" style="fill:rgb(17,19,18);"/>
                <path d="M638.53,475.176C642.853,475.254 647.176,475.333 651.499,475.411L654.499,475.393L657.494,475.341C657.414,475.554 656.5,478 656.5,478C655.061,478.039 644.828,478.314 638.5,478C636.472,477.9 637.714,476.986 638.53,475.176Z" style="fill:rgb(249,249,249);"/>
                <path d="M161.162,128.482C161.508,133.17 161.854,137.858 162.2,142.545C156.373,143.378 158.119,140.293 157.981,134.5C157.965,133.856 157.795,126.742 158.335,126.46C158.582,126.332 158.537,126.604 161.162,128.482Z" style="fill:rgb(246,246,246);"/>
                <path d="M320.509,108.41L323.455,108.768C326.125,109.088 328.795,109.408 331.465,109.728C331.113,111.454 330.761,113.18 330.409,114.906C326.407,113.914 322.404,112.922 318.402,111.93C320.085,111.439 319.82,110.984 321.5,111.027C321.571,111.029 322.508,111.053 322.34,110.743C322.227,110.534 322.205,110.57 320.509,108.41Z" style="fill:rgb(13,14,13);"/>
                <path d="M543.45,120.639C548.274,117.371 561.077,122.965 560.486,127.533C554.807,125.235 549.129,122.937 543.45,120.639Z" style="fill:rgb(240,241,240);"/>
                <path d="M669.913,842.292L670.152,842.677C672.068,845.869 673.984,849.062 675.9,852.254C675.501,852.721 676.033,853.98 672.074,853.732L666.492,843.504C667.633,843.1 668.773,842.696 669.913,842.292Z" style="fill:rgb(10,10,10);"/>
                <path d="M320.361,205.356C321.176,206.187 321.991,207.018 322.806,207.848C317.471,211.854 317.511,211.588 311.707,214.941C310.649,213.381 310.762,213.481 309.386,212.246C315.264,209.129 315.098,209.253 320.361,205.356Z" style="fill:rgb(7,7,7);"/>
                <path d="M294.354,328.793C298.244,320.269 300.249,328.166 308.375,332.625C308.618,332.758 308.442,332.873 309.281,335.973C305.375,334.103 301.469,332.234 297.564,330.365L294.354,328.793Z" style="fill:rgb(246,246,246);"/>
                <path d="M646.896,793.31L647.491,794.504L648.077,795.699L649.36,798.562L650.234,800.619L650.588,801.46C647.785,801.708 647.879,801.5 645.349,802.572L642.225,796.64C642.408,796.485 641.886,794.533 644.468,794.747C644.57,794.755 646.705,793.429 646.896,793.31Z" style="fill:rgb(20,20,20);"/>
                <path d="M309.386,212.246C310.762,213.481 310.649,213.381 311.707,214.941L309.323,216.054L306.366,217.062L302.405,218.084L301.453,218.257L299.512,218.583L298.54,218.747C299.142,215.962 299.033,215.997 299.445,215.212C304.557,213.842 304.496,214.025 309.386,212.246Z" style="fill:rgb(10,10,10);"/>
                <path d="M279.506,219.384L286.5,219.503L290.5,219.519C292.154,219.428 293.807,219.338 295.461,219.247C295.196,220.004 295.798,220.894 295.534,221.651C295.372,222.115 280.403,222.078 279.5,222C277.625,221.839 278.755,221.025 279.506,219.384Z" style="fill:rgb(246,246,247);"/>
                <path d="M580.62,140.251C583.94,141.947 587.26,143.643 590.579,145.339C590.183,146.81 589.787,148.281 589.39,149.753C588.923,150.063 588.456,150.373 587.988,150.682C585.169,146.133 585.422,145.953 580.622,143.384C578.823,142.421 579.774,142.054 580.62,140.251Z" style="fill:rgb(246,246,246);"/>
                <path d="M388.5,115.442C395.5,115.479 402.5,115.515 409.499,115.552L409.403,116.669L409.205,117.04C406.481,117.02 403.757,117 401.034,116.981C393.205,117.483 392.761,116.606 391.496,118.643L387.499,118.535C387.426,116.771 387.385,116.896 388.5,115.442Z" style="fill:rgb(15,16,16);"/>
                <path d="M206.462,90.923C207.108,90.104 209.914,86.546 219.458,89.995C221.02,90.56 220.298,91.025 220.556,93.237L216.497,92.513C213.152,91.983 209.807,91.453 206.462,90.923Z" style="fill:rgb(242,243,243);"/>
                <path d="M747.466,527.945C748.033,527.175 748.6,526.404 749.167,525.634C756.225,525.861 756.035,526.117 763.25,526.278C762.998,527.078 762.746,527.877 762.494,528.677C757.485,528.433 752.475,528.189 747.466,527.945Z" style="fill:rgb(250,250,250);"/>
                <path d="M310.44,106.855C312.574,105.891 312.053,104.901 314.5,105.021C320.159,105.298 322.143,103.155 323.455,108.768L320.509,108.41L318.547,108.166L310.44,106.855Z" style="fill:rgb(236,236,236);"/>
                <path d="M158.153,119.291C163.561,110.843 163.165,110.455 164.572,110.324C165.649,110.223 164.208,110.949 161.501,123.5C160.791,123.218 158.978,124.902 159.132,121.491C159.141,121.299 159.132,121.491 158.153,119.291Z" style="fill:rgb(243,244,244);"/>
                <path d="M660.354,822.551C661.528,825.138 662.701,827.725 663.875,830.313C662.501,830.072 662.466,828.889 659.671,830.404C658.515,828.149 657.358,825.894 656.202,823.64C658.052,822.078 657.998,821.559 660.354,822.551Z" style="fill:rgb(8,8,9);"/>
                <path d="M399.427,362.884C400.322,360.477 400.032,359.419 402.438,360.187C405.532,361.175 405.316,361.156 409.5,362C409.5,362 410.359,364.616 410.434,364.844L399.427,362.884Z" style="fill:rgb(246,246,246);"/>
                <path d="M674.622,858.427C677.307,858.659 677.284,859.537 679.677,858.395L683.903,865.247C681.501,864.666 681.251,864.618 680.13,866.783C678.678,864.629 677.226,862.476 675.773,860.323L674.622,858.427Z" style="fill:rgb(15,15,15);"/>
                <path d="M147.482,137.495C146.806,140.828 146.13,144.161 145.453,147.494C139.559,145.197 142.568,143.308 144.878,137.438C145.565,135.69 146.086,136.364 147.482,137.495Z" style="fill:rgb(247,248,247);"/>
                <path d="M650.588,801.46L652.813,806.344C650.612,806.006 648.515,804.937 649.524,808.476L650.384,809.688L649.253,810.623L645.349,802.572C647.879,801.5 647.785,801.708 650.588,801.46Z" style="fill:rgb(12,12,12);"/>
                <path d="M299.445,215.212C299.033,215.997 299.142,215.962 298.54,218.747L295.461,219.247C293.807,219.338 292.154,219.428 290.5,219.519C290.081,218.818 290.213,218.942 289.508,216.125C292.821,215.821 296.133,215.517 299.445,215.212Z" style="fill:rgb(10,10,10);"/>
                <path d="M583.301,504.507C584.037,503.505 584.774,502.502 585.51,501.5C587.938,509.085 589.679,510.178 583.824,515.494L583.301,504.507Z" style="fill:rgb(251,251,251);"/>
                <path d="M654.732,810.398L656.198,813.644L657.918,817.302C656.387,816.607 656.632,816.498 655.33,815.65C651.727,813.305 656.451,817.537 655.236,821.626C653.373,818.225 651.511,814.824 649.649,811.423C652.77,811.981 653.799,813.517 654.732,810.398Z" style="fill:rgb(42,41,42);"/>
                <path d="M475.5,118C477.821,118 528.953,118 504.5,119C477.6,120.102 477.141,119.642 475.5,118Z" style="fill:rgb(253,253,253);"/>
                <path d="M587.884,601.448L589.454,612.506C587.04,611.581 586.104,612.204 586,609.5C585.794,604.209 582.599,601.426 587.884,601.448Z" style="fill:rgb(244,244,244);"/>
                <path d="M358.384,353.914C361.919,351.019 362.263,352.509 369.5,354C371.332,354.377 370.272,354.997 369.437,356.783C365.753,355.826 362.068,354.87 358.384,353.914Z" style="fill:rgb(249,249,249);"/>
                <path d="M671.524,471.899L668.487,472.092C666.293,471.008 665.971,470.446 664.491,472.285L659.5,472.443L655.5,472.472C656.167,471.81 656.833,471.147 657.5,470.485L658.476,470.306L658.8,469.977C662.72,470.13 666.639,470.283 670.558,470.435L671.524,471.899Z" style="fill:rgb(251,251,251);"/>
                <path d="M328.345,346.901L337.556,350.339C340.225,356.294 330.176,350.803 329.618,350.499C327.373,349.272 326.712,348.908 328.345,346.901Z" style="fill:rgb(248,248,248);"/>
                <path d="M659.671,830.404C662.466,828.889 662.501,830.072 663.875,830.313L666.93,836.269C665.762,836.692 664.593,837.115 663.424,837.538C662.173,835.16 660.922,832.782 659.671,830.404Z" style="fill:rgb(8,8,9);"/>
                <path d="M440.46,368.946C440.763,368.146 440.134,367.181 440.436,366.382C440.606,365.931 440.874,367.243 446.448,366.098C449.582,365.455 449.352,366.551 450.497,369.578L447.501,369.486L442.526,369.18L440.46,368.946Z" style="fill:rgb(239,239,239);"/>
                <path d="M378.453,361.707L387.476,363.621C387.45,363.686 388.559,366.567 384.5,366.02C379.275,365.317 375.574,366.119 378.453,361.707Z" style="fill:rgb(249,249,249);"/>
                <path d="M533.502,120.495L534.404,120.784L541.565,123.321C541.256,124.032 541.873,124.937 541.563,125.649C541.207,126.469 534.177,124.068 533.556,123.856C531.153,123.035 531.549,122.083 533.502,120.495Z" style="fill:rgb(245,245,245);"/>
                <path d="M144.951,169.481C145.287,172.118 145.624,174.755 145.96,177.393C145.459,177.619 145.116,178.121 144.615,178.348C143.13,179.021 138.454,166.849 144.951,169.481Z" style="fill:rgb(249,249,249);"/>
                <path d="M276.526,216.019L280.493,216.071C281.842,218.538 282.748,219.449 286.51,216.08L287.512,216.094C287.174,217.23 286.837,218.366 286.5,219.503L279.506,219.384L275.518,219.156C275.854,218.11 276.19,217.065 276.526,216.019Z" style="fill:rgb(4,4,4);"/>
                <path d="M645.505,472.339C645.13,471.121 645.022,471.212 645.386,469.97C649.424,470.141 653.462,470.313 657.5,470.485C656.833,471.147 656.167,471.81 655.5,472.472L654.501,472.465L650.501,472.42L645.505,472.339Z" style="fill:rgb(250,250,251);"/>
                <path d="M596.938,657.395L598.991,666.383L597.646,667.346C596.968,666.994 595.539,666.251 594.157,658.457C594.115,658.222 594.032,657.752 596.938,657.395Z" style="fill:rgb(245,246,245);"/>
                <path d="M666.93,836.269L668.585,839.461L669.913,842.292C668.773,842.696 667.633,843.1 666.492,843.504L663.424,837.538C664.593,837.115 665.762,836.692 666.93,836.269Z" style="fill:rgb(6,6,6);"/>
                <path d="M592.843,635.441L594.588,645.481C594.25,645.279 592.406,646.653 591.427,643.596C589.158,636.506 591.934,636.5 592.843,635.441Z" style="fill:rgb(241,241,241);"/>
                <path d="M483.28,391.797C483.762,391.476 491.243,387.784 491.162,397.916L483.28,391.797Z" style="fill:rgb(249,250,250);"/>
                <path d="M409.501,118.744L409.205,117.04L409.403,116.669C419.17,116.939 422.186,116.674 423.504,118.737C418.836,118.739 414.169,118.741 409.501,118.744Z" style="fill:rgb(5,6,6);"/>
                <path d="M147.591,166.499C151.783,164.795 149.525,168.307 150.851,172.544C151.626,175.019 151.04,175.295 148.428,175.509C148.149,172.506 147.87,169.502 147.591,166.499Z" style="fill:rgb(247,247,247);"/>
                <path d="M635.111,779.675C635.907,779.307 636.704,778.94 637.5,778.573C638.948,782.077 640.373,782.101 640.156,786.17C639.54,786.635 638.923,787.1 638.307,787.565C637.242,784.935 636.176,782.305 635.111,779.675Z" style="fill:rgb(57,57,57);"/>
                <path d="M594.5,590.847C596.698,596.932 596.015,596.998 595.153,603.5C594.383,609.307 594.825,602.042 593.131,596.462C592.22,593.458 593.141,593.654 594.5,590.847Z" style="fill:rgb(255,254,255);"/>
                <path d="M583.573,557.494L584.318,565.514C583.182,564.773 582.368,565.902 581.385,563.6C581.181,563.123 577.596,554.724 583.573,557.494Z" style="fill:rgb(246,246,246);"/>
                <path d="M629.612,766.454C630.175,766.4 630.738,766.347 631.301,766.293C631.42,766.395 632.794,767.567 632.794,767.567C633.439,769.264 633.656,767.64 634.854,766.341L636.645,770.433C636.364,770.38 631.628,769.49 634.57,773.333C633.91,773.375 633.25,773.417 632.589,773.459L629.612,766.454Z" style="fill:rgb(19,19,19);"/>
                <path d="M338.585,112.964C343.565,113.721 348.546,114.479 353.526,115.236C352.886,115.322 352.917,116.631 352.276,116.717C351.001,116.89 349.77,116.122 348.5,115.915C341.537,114.778 335.565,119.345 338.585,112.964Z" style="fill:rgb(131,131,131);"/>
                <path d="M549.286,440.837C552.149,439.218 557.721,438.944 557.258,445.885L549.286,440.837Z" style="fill:rgb(250,250,250);"/>
                <path d="M154.413,120.45L151.363,126.438C148.561,127.857 148.708,128.524 148.542,128.31C148.232,127.907 149.696,122.973 150.336,121.409C151.372,118.877 151.991,119.35 154.413,120.45Z" style="fill:rgb(250,251,250);"/>
                <path d="M639.476,776.51L643.355,785.558C640.405,786.313 640.401,786.081 640.156,786.17C640.373,782.101 638.948,782.077 637.5,778.573C638.159,777.885 638.818,777.198 639.476,776.51Z" style="fill:rgb(29,29,30);"/>
                <path d="M734.452,527C741.732,520.286 744.206,527.029 744.483,527.785C741.139,527.523 737.796,527.261 734.452,527Z" style="fill:rgb(250,250,250);"/>
                <path d="M642.084,790.102C645.406,791.185 645.35,791.201 645.909,791.301L646.896,793.31C646.705,793.429 644.57,794.755 644.468,794.747C641.886,794.533 642.408,796.485 642.225,796.64L640.332,792.569C640.916,791.746 641.5,790.924 642.084,790.102Z" style="fill:rgb(20,20,20);"/>
                <path d="M643.355,785.558L643.99,787.281C643.355,788.221 642.72,789.162 642.084,790.102C641.5,790.924 640.916,791.746 640.332,792.569L638.307,787.565C638.923,787.1 639.54,786.635 640.156,786.17C640.401,786.081 640.405,786.313 643.355,785.558Z" style="fill:rgb(31,31,31);"/>
                <path d="M657.918,817.302C658.73,819.052 659.542,820.801 660.354,822.551C657.998,821.559 658.052,822.078 656.202,823.64L655.236,821.626C656.451,817.537 651.727,813.305 655.33,815.65C656.632,816.498 656.387,816.607 657.918,817.302Z" style="fill:rgb(6,6,6);"/>
                <path d="M502.301,406.761C509.362,401.905 509.121,411.302 509.103,411.988L502.301,406.761Z" style="fill:rgb(250,250,250);"/>
                <path d="M374.409,357.921C379.494,353.783 383.285,356.269 383.416,359.874L374.409,357.921Z" style="fill:rgb(246,246,246);"/>
                <path d="M617.541,723.485C621.001,721.848 624.284,726.033 620.084,730.649L617.541,723.485Z" style="fill:rgb(249,249,249);"/>
                <path d="M585.5,473.965C592.384,481.281 586.847,481.958 586.338,481.613C584.349,480.263 585.389,474.57 585.5,473.965Z" style="fill:rgb(255,254,255);"/>
                <path d="M591.776,628.464L592.843,635.441C589.165,634.256 590.107,633.366 589.066,629.548C588.481,627.402 589.618,627.57 591.776,628.464Z" style="fill:rgb(245,245,245);"/>
                <path d="M756.79,959.078L761.909,963.046C761.335,963.939 760.762,964.832 760.188,965.726C756.792,963.034 755.597,963.135 756.79,959.078Z" style="fill:rgb(242,243,243);"/>
                <path d="M447.501,369.486L450.497,369.578L453.48,369.742C453.642,370.23 455.506,376.356 447.356,371.704C447.404,370.965 447.452,370.225 447.501,369.486Z" style="fill:rgb(7,8,8);"/>
                <path d="M630.843,757.341L632.721,761.401C631.097,763.345 630.957,763.09 628.454,763.518L627.94,762.318L626.826,759.378C629.334,759.889 629.033,759.021 630.843,757.341Z" style="fill:rgb(10,10,10);"/>
                <path d="M587.9,156.506L587.733,162.525C586.997,162.249 586.111,162.839 585.375,162.563C584.644,162.289 584.97,156.985 585,156.5C585.13,154.378 586.066,155.694 587.9,156.506Z" style="fill:rgb(253,253,253);"/>
                <path d="M361.468,357.598L365.464,358.65C364.689,360.809 365.162,361.804 363.5,361.298C359.842,360.185 353.236,356.756 358.44,358.102C360.061,358.521 359.945,358.261 361.468,357.598Z" style="fill:rgb(251,251,251);"/>
                <path d="M531.452,116.681C531.414,112.931 533.168,113.906 536.597,115.393C540.026,116.881 538.044,118.192 538.379,118.84L536.583,118.243L531.452,116.681Z" style="fill:rgb(243,243,243);"/>
                <path d="M362.162,120.536C372.807,125.945 362.957,131.97 362.142,132.468C362.515,126.315 362.332,126.507 362.162,120.536Z" style="fill:rgb(233,232,234);"/>
                <path d="M353.089,160.306C357.684,166.133 351.735,167.165 351.345,167.345L350.184,166.338L353.089,160.306Z" style="fill:rgb(248,248,249);"/>
                <path d="M576.456,460.579L577.216,460.959C579.6,463.584 578.616,463.884 578.695,467.493C578.482,467.414 576.028,466.5 576.028,466.5C575.617,463.487 575.231,463.475 576.456,460.579Z" style="fill:rgb(249,249,249);"/>
                <path d="M546.571,125.329L551.582,127.282C550.712,129.469 551.126,130.469 549.562,129.813C546.436,128.502 545.117,128.465 546.571,125.329Z" style="fill:rgb(241,241,241);"/>
                <path d="M602.5,643.913C603.016,644.475 605.705,647.407 603.058,653.436C602.681,654.296 599.638,647.663 602.5,643.913Z" style="fill:rgb(254,254,254);"/>
                <path d="M632.721,761.401L634.854,766.341C632.997,765.948 633.115,766.043 631.301,766.293C630.738,766.347 630.175,766.4 629.612,766.454L628.454,763.518C630.957,763.09 631.097,763.345 632.721,761.401Z" style="fill:rgb(30,30,31);"/>
                <path d="M626.445,470.981C626.616,467.682 620.26,470.876 622.43,468.383C623.757,466.857 630.657,468.796 631.346,468.99C631.381,469.406 631.416,469.822 631.452,470.239L631.5,471.498L626.445,470.981Z" style="fill:rgb(249,249,249);"/>
                <path d="M592.515,152.5C592.596,152.192 593.748,147.848 594.5,149.045C594.945,149.753 594.566,150.73 594.778,151.54C595.252,153.353 599.85,152.944 598.379,154.049C594.055,157.296 592.663,152.962 592.515,152.5Z" style="fill:rgb(254,254,254);"/>
                <path d="M587.259,139.934C594.213,135.949 594.265,143.146 594.385,143.718L587.259,139.934Z" style="fill:rgb(245,244,244);"/>
                <path d="M367.692,122.398L368.157,122.768C368.063,125.021 368.503,124.967 367.377,127.094L366.437,127.562L365.36,127.641C365.295,126.766 363.113,119.345 367.692,122.398Z" style="fill:white;"/>
                <path d="M638.481,471.984C638.482,471.912 640.259,470.911 636.691,469.5C637.371,469.348 637.29,469.677 645.386,469.97C645.022,471.212 645.13,471.121 645.505,472.339L638.481,471.984Z" style="fill:rgb(242,243,242);"/>
                <path d="M483.353,174.462L482.171,179.428C481.324,179.042 480.477,178.655 479.631,178.268L479.511,177.442C479.715,176.469 479.918,175.497 480.121,174.525C481.954,172.698 482.141,174.037 483.353,174.462Z" style="fill:rgb(250,250,250);"/>
                <path d="M162.72,145.459L163.735,150.447L162.357,150.679C161.899,150.679 161.44,150.679 160.981,150.679C160.462,148.299 157.93,143.841 162.72,145.459Z" style="fill:rgb(243,243,243);"/>
                <path d="M391.496,118.643C392.761,116.606 393.205,117.483 401.034,116.981C401.189,117.567 401.344,118.154 401.499,118.741L396.498,118.712L391.496,118.643Z" style="fill:rgb(46,46,46);"/>
                <path d="M693.643,880.414C696.422,878.847 700.601,880.635 697.173,885.728L693.643,880.414Z" style="fill:rgb(244,244,244);"/>
                <path d="M608.973,705.37L610.77,711.422C606.779,713.297 605.207,709.904 608.973,705.37Z" style="fill:rgb(248,248,248);"/>
                <path d="M632.589,773.459C633.25,773.417 633.91,773.375 634.57,773.333L635.473,773.753C636.635,776.208 636.344,776.186 637.5,778.573C636.704,778.94 635.907,779.307 635.111,779.675L632.589,773.459Z" style="fill:rgb(43,43,42);"/>
                <path d="M318.547,108.166L320.509,108.41C322.205,110.57 322.227,110.534 322.34,110.743C322.508,111.053 321.571,111.029 321.5,111.027C319.82,110.984 320.085,111.439 318.402,111.93L313.426,110.926C316.291,109.978 316.209,110.186 318.547,108.166Z" style="fill:rgb(32,32,32);"/>
                <path d="M630.505,474.445L637.541,475.103C633.095,478.775 628.797,478.073 630.505,474.445Z" style="fill:rgb(242,242,242);"/>
                <path d="M636.369,507.799L641.666,510.083C636.611,514.587 634.708,510.378 636.369,507.799Z" style="fill:rgb(249,249,249);"/>
                <path d="M335.425,346.706C336.657,343.736 340.988,343.159 341.413,348.75L335.425,346.706Z" style="fill:rgb(243,243,243);"/>
                <path d="M162.586,108.572L159.529,112.521C156.019,111.542 157.712,105.613 162.586,108.572Z" style="fill:rgb(248,248,248);"/>
                <path d="M803.527,530.706C806.179,530.585 808.83,530.464 811.482,530.343C811.15,530.886 807.754,536.444 803.527,530.706Z" style="fill:rgb(253,253,253);"/>
                <path d="M677.785,855.332L679.677,858.395C677.284,859.537 677.307,858.659 674.622,858.427L673.91,857.263L673.512,856.493C675.849,856.204 675.666,856.181 677.785,855.332Z" style="fill:rgb(29,28,28);"/>
                <path d="M556.244,210.185C556.45,210.696 558.272,215.195 553.427,216.464C553.189,216.526 552.447,216.508 553.373,213.39C554.133,212.615 553.971,212.607 554.767,211.767C555.543,210.948 555.461,211.024 556.244,210.185Z" style="fill:rgb(254,254,254);"/>
                <path d="M491.192,159.395C492.101,159.484 493.01,159.573 493.919,159.662C492.699,164.635 491.601,163.792 489.391,164.464L491.192,159.395Z" style="fill:rgb(242,242,242);"/>
                <path d="M155.956,199.305C157.503,198.368 162.804,198.34 158.321,204.579L155.956,199.305Z" style="fill:rgb(242,242,242);"/>
                <path d="M401.499,118.741C401.344,118.154 401.189,117.567 401.034,116.981C403.757,117 406.481,117.02 409.205,117.04L409.501,118.744L401.499,118.741Z" style="fill:rgb(42,43,43);"/>
                <path d="M583.752,179.594L581.715,184.599C577.268,178.501 581.993,179.165 582.637,178.667L583.752,179.594Z" style="fill:rgb(240,241,240);"/>
                <path d="M533.284,178.43L531.79,183.576C527.028,176.609 532.927,178.193 533.284,178.43Z" style="fill:rgb(244,244,244);"/>
                <path d="M586.5,518C586.543,519.07 587.212,535.783 585.875,531.375C585.564,530.35 585.96,530.398 586.5,518Z" style="fill:rgb(253,253,253);"/>
                <path d="M631.5,471.498L631.452,470.239C632.911,470.153 632.717,470.123 636.691,469.5C640.259,470.911 638.482,471.912 638.481,471.984L631.5,471.498Z" style="fill:rgb(230,231,231);"/>
                <path d="M654.501,472.465L655.5,472.472L659.5,472.443C659.164,473.4 658.828,474.357 658.493,475.314L657.494,475.341L654.499,475.393C654.216,473.824 654.248,473.983 654.501,472.465Z" style="fill:rgb(31,31,31);"/>
                <path d="M452.395,374.955L455.486,375.593C456.493,377.758 459.473,377.272 457.544,378.642C457.48,378.689 451.726,377.737 451.506,377.494C450.426,376.301 451.428,376.371 452.395,374.955Z" style="fill:rgb(242,242,243);"/>
                <path d="M557.42,129.693L561.548,131.39C559.684,135.582 555.082,133.691 557.42,129.693Z" style="fill:rgb(241,241,241);"/>
                <path d="M675.9,852.254L677.785,855.332C675.666,856.181 675.849,856.204 673.512,856.493L672.074,853.732C676.033,853.98 675.501,852.721 675.9,852.254Z" style="fill:rgb(35,36,36);"/>
                <path d="M614.401,154.682L615.341,153.657C618.135,152.846 619.613,152.259 619.337,155.621L618.26,156.894L614.401,154.682Z" style="fill:rgb(239,240,239);"/>
                <path d="M442.526,369.18L447.501,369.486C447.452,370.225 447.404,370.965 447.356,371.704C444.221,371.998 444.206,372.291 441.803,370.542L442.526,369.18Z" style="fill:rgb(14,15,15);"/>
                <path d="M584.597,569.493L584.9,573.467C583.183,572.894 581.639,573.68 582,569.5C582.162,567.616 582.977,568.754 584.597,569.493Z" style="fill:rgb(243,242,242);"/>
                <path d="M763.951,962.085C764.151,962.238 776.595,971.943 764.642,965.155C763.936,964.593 763.23,964.03 762.524,963.467L763.951,962.085Z" style="fill:rgb(177,177,179);"/>
                <path d="M166.5,220.5C170.337,218.261 171.669,221.085 169.109,224.744L166.5,220.5Z" style="fill:rgb(237,237,237);"/>
                <path d="M538.467,171.489C542.649,170.397 541.578,175.276 537.151,175.377L538.467,171.489Z" style="fill:rgb(245,245,245);"/>
                <path d="M486.571,163.522L485.354,167.458C484.569,167.083 483.784,166.708 482.999,166.333C483.7,163.779 482.83,162.701 485.646,162.668L486.571,163.522Z" style="fill:rgb(244,244,243);"/>
                <path d="M150.924,185.363C154.872,182.753 156.038,187.923 152.376,189.542L150.924,185.363Z" style="fill:rgb(244,244,244);"/>
                <path d="M636.645,770.433L637.979,773.274C637.144,773.434 636.309,773.594 635.473,773.753L634.57,773.333C631.628,769.49 636.364,770.38 636.645,770.433Z" style="fill:rgb(12,12,12);"/>
                <path d="M602.428,469.782L606.45,470.729C606.078,471.486 605.705,472.243 605.333,473.001C603.889,472.834 602.444,472.667 601,472.501C601.476,471.594 601.952,470.688 602.428,469.782Z" style="fill:rgb(239,239,239);"/>
                <path d="M637.979,773.274L639.476,776.51C638.818,777.198 638.159,777.885 637.5,778.573C636.344,776.186 636.635,776.208 635.473,773.753C636.309,773.594 637.144,773.434 637.979,773.274Z" style="fill:rgb(16,16,16);"/>
                <path d="M486.488,367.472C487.215,368.858 487.171,373.869 481.418,369.165C483.108,368.601 484.798,368.036 486.488,367.472Z" style="fill:rgb(245,245,245);"/>
                <path d="M703.5,579.133C695.826,575.603 705.276,578.185 705.442,578.23C708.455,579.053 710.537,579.045 708.492,581.575C707.78,581.33 707.068,581.085 706.357,580.841C705.085,579.7 705.285,579.608 703.5,579.133Z" style="fill:rgb(254,254,254);"/>
                <path d="M537.151,175.377C541.051,180.365 537.51,180.498 535.455,180.486L537.151,175.377Z" style="fill:rgb(242,242,242);"/>
                <path d="M761.909,963.046L762.524,963.467C763.23,964.03 763.936,964.593 764.642,965.155C763.113,967.532 762.584,967.344 760.188,965.726C760.762,964.832 761.335,963.939 761.909,963.046Z" style="fill:rgb(225,225,225);"/>
                <path d="M617.5,695.81C620.086,702.142 615.923,703.685 615.857,701.5C615.843,701.026 616.078,701.132 617.5,695.81Z" style="fill:rgb(254,254,255);"/>
                <path d="M148.057,149.453C152.86,155.062 148.663,155.07 147.606,155.505L148.057,149.453Z" style="fill:rgb(236,236,237);"/>
                <path d="M272.457,100.851C273.31,98.52 272.877,97.503 274.438,98.187C277.671,99.604 275.976,100.668 276.499,101.51L272.457,100.851Z" style="fill:rgb(237,237,237);"/>
                <path d="M318.652,345.793C322.815,348.331 328.475,346.425 324.552,349.376C324.22,349.625 324.195,349.257 319.5,348.187C317.895,347.822 318.364,347.365 318.652,345.793Z" style="fill:rgb(254,254,254);"/>
                <path d="M460.144,365.36C463.514,367.86 462.441,368.479 462.499,369.471C459.107,369.259 458.122,369.921 458.596,368.5C458.596,368.5 460.02,365.611 460.144,365.36Z" style="fill:rgb(243,243,243);"/>
                <path d="M710.528,524.324C709.207,520.939 714.672,519.726 714.46,524.845L710.528,524.324Z" style="fill:rgb(248,248,248);"/>
                <path d="M653.788,808.363L654.363,809.563L654.732,810.398C653.799,813.517 652.77,811.981 649.649,811.423L649.253,810.623L650.384,809.688C652.406,810.533 652.236,809.822 653.788,808.363Z" style="fill:rgb(26,26,26);"/>
                <path d="M542.359,161.445C542.59,161.369 545.25,160.5 545.25,160.5C545.432,160.82 545.182,160.827 544.314,165C542.625,163.437 542.782,163.533 542.625,163.437C542.034,163.079 541.999,163.804 541.496,163.498L542.359,161.445Z" style="fill:rgb(246,246,246);"/>
                <path d="M304.434,105.929C305.66,102.76 306.898,101.401 308.625,104.311C309.011,104.961 308.104,105.925 308.49,106.575L304.434,105.929Z" style="fill:rgb(237,237,237);"/>
                <path d="M740.519,530.069L744.519,530.276C738.349,535.624 737.181,533.018 737.486,532.513C737.647,532.246 737.711,532.332 740.519,530.069Z" style="fill:rgb(250,250,250);"/>
                <path d="M543.48,152.489L541.906,155.702C540.517,153.907 540.154,154.203 540,152.5C539.757,149.827 541.259,151.036 543.48,152.489Z" style="fill:rgb(241,241,241);"/>
                <path d="M346.473,111.718C345.445,109.38 346.066,108.652 348.55,109.082C348.718,109.111 349.948,108.757 349.542,112.195L346.473,111.718Z" style="fill:rgb(243,243,243);"/>
                <path d="M606.683,506.461L607.759,510.42C602.742,512.458 603.805,506.935 606.683,506.461Z" style="fill:rgb(247,247,246);"/>
                <path d="M614.732,724.429L615.734,727.417C612.939,728.432 611.779,728.499 612.024,725.5C612.043,725.268 612.225,725.421 614.732,724.429Z" style="fill:rgb(243,243,243);"/>
                <path d="M585.527,545.499C588.187,541.552 584.361,538.934 587.504,538.936C588.412,538.937 588.048,544.974 588.016,545.5C588.004,545.709 588.016,545.5 585.6,546.494L585.527,545.499Z" style="fill:rgb(251,252,252);"/>
                <path d="M650.501,472.42L654.501,472.465C654.248,473.983 654.216,473.824 654.499,475.393L651.499,475.411C651.166,474.414 650.834,473.417 650.501,472.42Z" style="fill:rgb(30,30,30);"/>
                <path d="M345.358,175.42C348.532,177.099 346.978,178.739 346.979,178.745L346.526,179.405C345.444,179.396 344.361,179.388 343.278,179.379L345.358,175.42Z" style="fill:rgb(236,236,236);"/>
                <path d="M267.515,218.397L271.457,218.904C270.065,221.733 269.505,220.999 266.231,220.931L267.515,218.397Z" style="fill:rgb(237,237,237);"/>
                <path d="M185.306,245.676C188.497,243.733 190.205,245.669 188.175,248.802L185.306,245.676Z" style="fill:rgb(238,238,238);"/>
                <path d="M221.399,208.837L225.615,210.084C223.21,212.425 222.849,211.96 219.728,210.683L221.399,208.837Z" style="fill:rgb(237,237,237);"/>
                <path d="M701.441,522.945L702.307,520.089C703.095,520.343 703.884,520.597 704.673,520.851C705.268,521.825 705.864,522.8 706.46,523.774L701.441,522.945Z" style="fill:rgb(238,238,238);"/>
                <path d="M339.111,186.258C341.209,185.931 342.387,185.628 341.605,187.576C340.581,190.131 339.928,189.113 337.194,189.301L339.111,186.258Z" style="fill:rgb(237,237,237);"/>
                <path d="M604.634,689.463L605.448,692.514C602.585,692.27 601.511,692.437 602,689.5C602.308,687.647 602.942,688.688 604.634,689.463Z" style="fill:rgb(243,244,244);"/>
                <path d="M654.363,809.563C661.806,806.05 656.411,813.356 656.198,813.644L654.732,810.398L654.363,809.563Z" style="fill:rgb(226,226,226);"/>
                <path d="M343.278,179.379C344.361,179.388 345.444,179.396 346.526,179.405C344.77,182.372 343.893,184.395 342.168,181.297L343.278,179.379Z" style="fill:rgb(246,246,246);"/>
                <path d="M491.162,397.916C491.457,397.752 498.548,393.793 494.403,400.616L491.162,397.916Z" style="fill:rgb(237,237,237);"/>
                <path d="M233.586,212.179L237.578,213.104C234.984,214.965 234.098,216.392 232.667,213.361L233.586,212.179Z" style="fill:rgb(232,232,232);"/>
                <path d="M598.991,666.383L599.939,670.401C597.245,671.456 596.784,670.226 597.646,667.346L598.991,666.383Z" style="fill:rgb(240,240,240);"/>
                <path d="M287.512,216.094L289.508,216.125C290.213,218.942 290.081,218.818 290.5,219.519L286.5,219.503C286.837,218.366 287.174,217.23 287.512,216.094Z" style="fill:rgb(28,27,28);"/>
                <path d="M502.2,134.304C503.243,134.385 504.286,134.466 505.329,134.547C503.465,137.026 503.436,137.205 500.255,137.367L502.2,134.304Z" style="fill:rgb(247,247,247);"/>
                <path d="M350.184,166.338L351.345,167.345C352.17,170.259 351.029,170.255 348.143,170.313L350.184,166.338Z" style="fill:rgb(230,231,231);"/>
                <path d="M614.545,519.476C618.129,517.155 619.695,521.061 616.373,522.582L614.545,519.476Z" style="fill:rgb(250,250,250);"/>
                <path d="M144.759,161.501L144.863,167.484C141.255,165.219 141.001,163.645 144.759,161.501Z" style="fill:rgb(231,232,230);"/>
                <path d="M584.08,186.316C584.228,186.565 585.938,189.438 585.938,189.438C585.193,190.987 584.783,190.254 582.091,190.277L584.08,186.316Z" style="fill:rgb(232,232,233);"/>
                <path d="M485.354,167.458L484.493,170.498C480.416,170.334 482.482,167.747 482.999,166.333C483.784,166.708 484.569,167.083 485.354,167.458Z" style="fill:rgb(247,247,247);"/>
                <path d="M490.631,362.798L486.537,364.593C483.627,358.342 490.329,362.606 490.631,362.798Z" style="fill:rgb(245,245,245);"/>
                <path d="M280.493,216.071L286.51,216.08C282.748,219.449 281.842,218.538 280.493,216.071Z" style="fill:rgb(28,27,29);"/>
                <path d="M171.788,172.359L172.792,174.344C172.32,174.369 165.567,174.721 168.38,170.422C168.552,170.159 168.289,171.192 171.788,172.359Z" style="fill:rgb(242,242,242);"/>
                <path d="M669.519,474.65C670.679,482.111 665.662,475.329 665.468,475.067L669.519,474.65Z" style="fill:rgb(236,236,237);"/>
                <path d="M150.609,136.53C152.494,136.263 152.444,136.611 154.149,135.403C154.604,140.072 152.246,139.221 150.107,138.395L150.609,136.53Z" style="fill:rgb(248,248,248);"/>
                <path d="M762.494,528.677C762.746,527.877 762.998,527.078 763.25,526.278C765.481,526.435 766.293,526.003 766.49,528.813L762.494,528.677Z" style="fill:rgb(249,248,248);"/>
                <path d="M581.945,534.47L582.279,539.511C582.081,539.43 579.802,538.5 579.802,538.5C579.284,536.908 579.989,537.056 581.945,534.47Z" style="fill:rgb(230,231,230);"/>
                <path d="M264.384,311.686C267.719,309.453 268.418,311.165 268.18,313.998L264.384,311.686Z" style="fill:rgb(231,231,231);"/>
                <path d="M656.385,803.27C656.756,803.261 657.127,803.253 657.498,803.245C657.766,803.488 660.897,806.329 658.718,807.597C658.378,807.794 656.709,808.765 656.385,803.27Z" style="fill:rgb(254,254,255);"/>
                <path d="M683.533,470.834L681.444,471.075L680.625,470.198C681.169,469.709 681.165,469.769 680.701,469.08C682.853,467.885 682.809,468.265 685.22,467.944L685.22,469.056C683.873,469.577 684.129,469.657 683.533,470.834Z" style="fill:rgb(249,249,248);"/>
                <path d="M580.336,193.405C583.032,197.218 580.384,197.24 578.06,197.213L580.336,193.405Z" style="fill:rgb(239,239,239);"/>
                <path d="M281.5,316.888C281.797,316.918 293.326,318.073 284.5,319.096C282.043,319.381 281.309,319.341 281.5,316.888Z" style="fill:rgb(255,254,255);"/>
                <path d="M587.653,570.485C588.862,568.613 588.578,568.66 589,566.5C589.415,564.369 593.012,572.142 587.738,571.482L587.653,570.485Z" style="fill:rgb(251,251,251);"/>
                <path d="M695.424,521.939C697.713,519.99 697.709,520.152 700.685,519.973C699.851,521.349 700.279,521.374 699.467,522.696L695.424,521.939Z" style="fill:rgb(240,241,241);"/>
                <path d="M697.455,471.286C696.213,474.618 695.121,474.334 692.418,472.113L697.455,471.286Z" style="fill:rgb(243,243,243);"/>
                <path d="M393.5,356.81C393.737,356.824 407.197,357.699 395.562,358.937C393.658,359.139 392.684,358.978 392.438,358.937C390.66,358.642 392.748,358.315 393.5,356.81Z" style="fill:rgb(254,254,255);"/>
                <path d="M142.5,150.841C142.695,151.464 145.048,159 142.5,159C137.128,159 142.101,156.18 142.5,150.841Z" style="fill:rgb(253,253,253);"/>
                <path d="M621.513,473.413L625.544,474.022C625.299,474.237 618.22,480.45 621.513,473.413Z" style="fill:rgb(232,233,232);"/>
                <path d="M627.94,762.318L628.454,763.518L629.612,766.454C626.133,766.889 625.847,765.085 627.94,762.318Z" style="fill:rgb(228,229,229);"/>
                <path d="M265.458,99.856C265.582,99.532 267.247,95.166 269.532,98.346C269.952,98.93 269.081,99.918 269.5,100.501L265.458,99.856Z" style="fill:rgb(229,230,230);"/>
                <path d="M652.813,806.344L653.788,808.363C651.534,808.079 651.618,807.819 649.524,808.476C648.515,804.937 650.612,806.006 652.813,806.344Z" style="fill:rgb(20,20,20);"/>
                <path d="M497.37,137.419L496.292,139.383C494.089,139.667 492.87,139.473 494.087,137.608C495.725,135.096 497.02,137.204 497.37,137.419Z" style="fill:rgb(249,250,250);"/>
                <path d="M588.515,580.498C589.794,578.547 589.439,578.577 589.941,576.477C591.332,570.658 591.09,579.242 591.083,579.5C591.03,581.377 590.309,580.813 588.632,581.485L588.515,580.498Z" style="fill:rgb(250,250,250);"/>
                <path d="M668.585,839.461C670.431,838.765 670.976,837.598 671.627,839.395C672.253,841.121 671.478,840.827 670.152,842.677L669.913,842.292L668.585,839.461Z" style="fill:rgb(228,228,228);"/>
                <path d="M488.035,159.347L487.282,161.423C486.134,160.6 486.265,160.655 484.956,160.351C485.196,159.371 485.362,154.398 488.035,159.347Z" style="fill:rgb(243,243,243);"/>
                <path d="M582.348,459.833C581.687,457.393 582.454,457.118 585,457.499C584.805,458.566 584.609,459.632 584.414,460.699L582.348,459.833Z" style="fill:rgb(244,245,244);"/>
                <path d="M454.824,357.761L456.375,357.938C457.339,360.348 457.075,360.397 455.433,362.375C454.966,360.003 454.882,360.14 454.824,357.761Z" style="fill:rgb(254,254,255);"/>
                <path d="M306.366,217.062C305.629,219.671 306.123,220.754 304.529,220.065C304.316,219.973 304.372,219.919 302.405,218.084L306.366,217.062Z" style="fill:rgb(230,230,230);"/>
                <path d="M715.058,910.826C717.805,909.54 718.603,911.076 717.188,913.73L715.058,910.826Z" style="fill:rgb(229,228,229);"/>
                <path d="M330.4,344.765C331.27,338.952 333.384,343.1 333.508,343.344C333.897,344.108 332.946,345.146 333.335,345.91L330.4,344.765Z" style="fill:rgb(243,243,243);"/>
                <path d="M614.536,472.294L617.434,472.854C617.338,473.07 611.157,481.104 614.536,472.294Z" style="fill:rgb(240,240,240);"/>
                <path d="M653.788,808.363C652.236,809.822 652.406,810.533 650.384,809.688L649.524,808.476C651.618,807.819 651.534,808.079 653.788,808.363Z" style="fill:rgb(3,3,3);"/>
                <path d="M592.7,156.5C592.929,162.222 592.117,169.306 591.88,163.5C591.734,159.91 592.275,160.126 592.7,156.5Z" style="fill:rgb(253,253,253);"/>
                <path d="M504.273,131.352C504.809,132.131 505.345,132.909 505.88,133.687L505.329,134.547C504.286,134.466 503.243,134.385 502.2,134.304L504.273,131.352Z" style="fill:rgb(244,244,244);"/>
                <path d="M354.416,352.806C356.975,350.814 358.611,350.697 358.384,353.914L354.416,352.806Z" style="fill:rgb(241,241,241);"/>
                <path d="M590.143,150.627C590.933,151.251 591.724,151.876 592.515,152.5C591.89,154.405 591.944,154.348 590.382,155.506L590.143,150.627Z" style="fill:rgb(247,247,247);"/>
                <path d="M279.442,101.892C279.376,98.85 280.93,97.854 282.501,100.314C282.881,100.909 282.13,101.837 282.51,102.433L279.442,101.892Z" style="fill:rgb(235,235,235);"/>
                <path d="M588.167,175.409C593.226,173.848 590.515,177.162 590.348,177.324C590.187,177.481 590.14,177.338 587.537,177.513L588.167,175.409Z" style="fill:rgb(247,247,247);"/>
                <path d="M299.544,105.21C298.728,103.068 299.305,102.425 301.551,103.047C301.551,103.047 302.404,105.441 302.478,105.649L299.544,105.21Z" style="fill:rgb(234,234,234);"/>
                <path d="M687.511,520.444C687.84,518.545 687.822,518.698 687.84,518.545C687.895,518.076 687.695,518.233 687.739,517.86C690.082,518.44 690.348,518.502 690.417,520.972L687.511,520.444Z" style="fill:rgb(244,244,244);"/>
                <path d="M628.377,500.738C626.909,497.694 626.011,496.668 627.44,497.17C627.759,497.282 630.879,498.377 631.004,499.44C631.015,499.534 628.591,500.641 628.377,500.738Z" style="fill:rgb(252,252,252);"/>
                <path d="M680.4,518.975C682.712,516.949 684.314,516.544 684.433,519.846L680.4,518.975Z" style="fill:rgb(239,239,239);"/>
                <path d="M460.743,371.961L463.469,372.101C463.03,373.027 462.591,373.954 462.152,374.88C461.185,374.098 460.218,373.317 459.252,372.535L460.743,371.961Z" style="fill:rgb(206,206,206);"/>
                <path d="M643.99,787.281L645.909,791.301C645.35,791.201 645.406,791.185 642.084,790.102C642.72,789.162 643.355,788.221 643.99,787.281Z" style="fill:rgb(54,54,55);"/>
                <path d="M243.455,96.856C243.373,93.872 244.894,92.909 246.501,95.314C246.871,95.868 246.157,96.759 246.527,97.314L243.455,96.856Z" style="fill:rgb(235,235,235);"/>
                <path d="M775.499,531.293L780.498,531.311C777.99,533.431 777.141,534.092 775.499,531.293Z" style="fill:rgb(247,248,247);"/>
                <path d="M690.417,520.972C692.553,519.102 694.274,518.286 694.444,521.788L690.417,520.972Z" style="fill:rgb(236,236,236);"/>
                <path d="M484.128,183.424C484.263,183.59 485.817,185.5 485.817,185.5C486.513,187.182 485.428,186.701 483.282,187.457L484.128,183.424Z" style="fill:rgb(236,236,236);"/>
                <path d="M594.949,647.424L595.529,650.494C595.28,650.521 587.865,650.311 594.949,647.424Z" style="fill:rgb(235,235,235);"/>
                <path d="M483.119,188.429C483.274,188.679 485.051,191.552 485.051,191.552C485.051,191.552 482.545,192.393 482.327,192.466L483.119,188.429Z" style="fill:rgb(235,235,236);"/>
                <path d="M709.553,527.007L714.487,527.61L713.734,528.936L712.313,528.912C710.509,528.509 710.419,528.742 709.553,527.007Z" style="fill:rgb(232,233,232);"/>
                <path d="M626.826,759.378L627.94,762.318C627.1,762.079 626.167,762.742 625.328,762.503C625.061,762.427 622.378,761.25 626.826,759.378Z" style="fill:rgb(231,231,231);"/>
                <path d="M485.284,178.441C485.56,178.813 485.925,179.113 486.201,179.485C487.073,180.657 487.015,181.327 487,181.5C486.981,181.728 486.801,181.571 484.306,182.457L485.284,178.441Z" style="fill:rgb(237,237,237);"/>
                <path d="M618.26,156.894L619.337,155.621C621.611,155.725 621.295,156.406 621.314,158.792L618.26,156.894Z" style="fill:rgb(227,227,227);"/>
                <path d="M304.355,336.841L306.398,337.744C304.096,342.915 303.041,338.768 303.038,338.493C303.038,338.493 304.25,336.974 304.355,336.841Z" style="fill:rgb(246,246,246);"/>
                <path d="M612.831,718.408L613.773,721.412C610.418,722.992 611.392,720.237 612.831,718.408Z" style="fill:rgb(235,235,235);"/>
                <path d="M492.23,156.407C492.811,156.832 493.392,157.258 493.973,157.683L493.919,159.662C493.01,159.573 492.101,159.484 491.192,159.395L492.23,156.407Z" style="fill:rgb(237,237,237);"/>
                <path d="M605.532,497.501L605.657,499.498C603.543,498.704 602.691,499.185 603,497.5C603.321,495.748 603.941,496.728 605.532,497.501Z" style="fill:rgb(249,249,249);"/>
                <path d="M489.391,164.464C489.516,164.711 490.957,167.553 490.957,167.553C490.914,167.784 490.748,167.615 488.14,168.392L489.391,164.464Z" style="fill:rgb(234,234,234);"/>
                <path d="M482.184,193.441C482.324,193.609 483.929,195.538 483.929,195.538C484.506,197.078 483.553,196.673 481.53,197.504L482.184,193.441Z" style="fill:rgb(237,237,237);"/>
                <path d="M608.527,502.495C614.546,498.95 609.302,505.395 609.143,505.591L608.527,502.495Z" style="fill:rgb(247,247,247);"/>
                <path d="M479.286,388.774C481.582,387.27 482.239,388.207 482.171,390.948L479.286,388.774Z" style="fill:rgb(231,231,231);"/>
                <path d="M513.5,118.98C513.99,118.969 530.651,118.589 519.548,119.938C516.256,120.339 515.931,121.508 513.5,118.98Z" style="fill:rgb(253,253,253);"/>
                <path d="M236.444,95.879C238.576,94.027 239.448,93.732 240.503,96.477L236.444,95.879Z" style="fill:rgb(223,223,223);"/>
                <path d="M590.09,164.459C594.689,169.841 591.997,170.51 591.5,170.51C589.279,170.51 591.906,168.375 589.829,166.523L590.09,164.459Z" style="fill:rgb(247,247,247);"/>
                <path d="M152.276,131.425C153.743,133.298 154.287,133.01 154.149,135.403C152.739,134.566 152.905,134.632 151.277,134.427L152.276,131.425Z" style="fill:rgb(241,241,241);"/>
                <path d="M549.022,147.261C550.648,149.442 549.97,150.266 547.327,150.414L549.022,147.261Z" style="fill:rgb(245,244,245);"/>
                <path d="M673.91,857.263L674.622,858.427L675.773,860.323C673.025,860.257 672.378,859.412 673.91,857.263Z" style="fill:rgb(224,223,224);"/>
                <path d="M541.496,163.498C541.999,163.804 542.034,163.079 542.625,163.437C542.782,163.533 542.625,163.437 544.314,165C542.625,166.261 542.623,166.684 540.651,165.562L541.496,163.498Z" style="fill:rgb(246,246,246);"/>
                <path d="M526.28,207.501C526.129,208.499 525.979,209.496 525.828,210.493C525.666,210.314 520.018,204.066 526.28,207.501Z" style="fill:rgb(250,250,250);"/>
                <path d="M749.5,532.33C749.991,532.297 781.466,531.044 755.605,533.079C751.273,533.42 750.358,532.435 749.5,532.33Z" style="fill:rgb(252,252,252);"/>
                <path d="M330.328,199.366C331.861,201.806 330.618,202.24 328.118,202.202L330.328,199.366Z" style="fill:rgb(224,224,224);"/>
                <path d="M664.292,186.807C666.558,185.164 667.124,186.274 667.231,188.861L664.292,186.807Z" style="fill:rgb(226,227,227);"/>
                <path d="M585.228,175.41L584.525,177.509C583.304,176.693 583.476,176.713 581.986,176.351C582.616,174.131 583.201,174.115 585.228,175.41Z" style="fill:rgb(241,241,242);"/>
                <path d="M612.448,153.592C613.329,151.449 614.366,151.606 615.341,153.657L614.401,154.682L612.448,153.592Z" style="fill:rgb(242,242,242);"/>
                <path d="M255.486,216.591L258.568,217.069C258.381,217.234 252.399,222.516 255.486,216.591Z" style="fill:rgb(230,230,230);"/>
                <path d="M412.518,368.386L414.474,368.674C412.746,372.889 411.559,370.865 411.413,370.614C411.312,370.443 411.413,370.614 412.518,368.386Z" style="fill:rgb(244,245,245);"/>
                <path d="M366.437,127.562L367.377,127.094C367.725,128.112 368.073,129.131 368.421,130.149C367.447,130.141 366.474,130.133 365.5,130.125C365.6,128.653 365.625,128.824 366.437,127.562Z" style="fill:rgb(254,254,254);"/>
                <path d="M470.533,368.746C469.894,367.084 468.641,366.473 470.442,366.092C472.381,365.683 471.773,366.633 472.49,368.441L470.533,368.746Z" style="fill:rgb(246,247,247);"/>
                <path d="M204.519,265.48L205.357,264.67C208.379,264.47 207.091,265.953 207.105,267.913C206.243,267.102 205.381,266.291 204.519,265.48Z" style="fill:rgb(230,230,231);"/>
                <path d="M261.488,217.561L264.552,218.051C264.368,218.217 258.09,223.898 261.488,217.561Z" style="fill:rgb(228,228,228);"/>
                <path d="M200.399,261.608C202.37,260.405 203.232,260.327 203.332,262.637L202.459,263.544L200.399,261.608Z" style="fill:rgb(239,239,239);"/>
                <path d="M213.548,206.363L215.633,207.056C214.862,208.829 215.48,210.055 213.625,209.342C211.767,208.627 212.74,208.138 213.548,206.363Z" style="fill:rgb(236,236,236);"/>
                <path d="M202.459,263.544L203.332,262.637C205.196,262.552 205.121,262.876 205.357,264.67L204.519,265.48L202.459,263.544Z" style="fill:rgb(239,239,239);"/>
                <path d="M299.512,218.583L301.453,218.257C300.696,220.342 301.209,221.248 299.444,220.901C297.803,220.579 298.9,220.046 299.512,218.583Z" style="fill:rgb(238,237,237);"/>
                <path d="M480.502,393.497L482.695,395.268C482.391,395.462 477.037,399.439 480.502,393.497Z" style="fill:rgb(234,233,233);"/>
                <path d="M638.512,505.47C638.587,505.324 639.445,503.635 639.445,503.635C641.108,502.856 640.611,504.076 641.434,506.661L638.512,505.47Z" style="fill:rgb(238,239,239);"/>
                <path d="M743.5,236.871C743.735,236.904 753.201,238.208 745.5,239.069C743.654,239.275 743.988,238.707 743.5,236.871Z" style="fill:rgb(254,254,254);"/>
                <path d="M649.505,180.493L651.773,182.09C651.58,182.198 649.357,183.443 649.357,183.443C647.321,183.435 648.761,182.523 649.505,180.493Z" style="fill:rgb(229,229,229);"/>
                <path d="M177.578,236.436C182.554,233.475 179.47,238.428 179.351,238.619L177.578,236.436Z" style="fill:rgb(236,236,236);"/>
                <path d="M174.521,232.485C175.224,232.23 175.713,231.538 176.416,231.283C178.385,230.569 176.336,234.484 176.208,234.729L174.521,232.485Z" style="fill:rgb(234,234,234);"/>
                <path d="M568.441,205.452C567.839,206.173 567.238,206.893 566.636,207.613C565.876,206.368 564.815,203.361 568.441,205.452Z" style="fill:rgb(240,240,240);"/>
                <path d="M171.613,228.418C176.626,225.543 173.35,230.507 173.227,230.693L171.613,228.418Z" style="fill:rgb(235,235,235);"/>
                <path d="M512.492,418.511L514.718,420.224C514.529,420.322 512.355,421.45 512.355,421.45C510.301,421.39 511.767,420.503 512.492,418.511Z" style="fill:rgb(232,232,231);"/>
                <path d="M572.334,454.807C572.723,446.469 574.316,455.682 574.308,455.861L572.334,454.807Z" style="fill:rgb(238,238,238);"/>
                <path d="M585.923,551.463C586.552,551.474 586.851,550.387 587.48,550.398C587.828,550.404 589.388,550.963 586.149,554.535L585.923,551.463Z" style="fill:rgb(236,236,237);"/>
                <path d="M709.526,903.481C709.731,903.407 712.095,902.552 712.095,902.552C713.094,903.655 712.279,903.68 711.201,905.721L709.526,903.481Z" style="fill:rgb(227,227,228);"/>
                <path d="M595.5,608.821C595.841,610.21 595.827,610.033 596.168,611.54C596.742,614.079 597.821,616.831 596.339,614.63C594.604,612.054 595.024,611.96 595.5,608.821Z" style="fill:rgb(254,254,254);"/>
                <path d="M718.524,915.481C718.729,915.407 721.082,914.556 721.082,914.556C722.102,915.666 721.286,915.693 720.275,917.677L718.524,915.481Z" style="fill:rgb(230,230,230);"/>
                <path d="M634.434,170.602L636.756,172.1C634.801,173.556 634.87,174.427 633.918,173.444C632.903,172.395 633.66,172.424 634.434,170.602Z" style="fill:rgb(230,230,230);"/>
                <path d="M697.628,886.411C702.522,883.679 699.358,888.498 699.236,888.685L697.628,886.411Z" style="fill:rgb(230,230,230);"/>
                <path d="M493.29,153.427C494.771,155.453 495.501,155.559 493.973,157.683C493.392,157.258 492.811,156.832 492.23,156.407L493.29,153.427Z" style="fill:rgb(236,236,236);"/>
                <path d="M611.5,690.814C615.207,694.596 612.823,695.044 612.48,695.01C611.424,694.903 611.877,694.533 611.5,690.814Z" style="fill:rgb(254,254,254);"/>
                <path d="M442.431,372.888L443.564,373.12C442.755,375.174 443.061,377.198 441.518,375.482C440.352,374.187 441.5,374.242 442.431,372.888Z" style="fill:rgb(241,241,241);"/>
                <path d="M191.511,252.491C191.681,252.416 193.639,251.558 193.639,251.558C195.733,251.684 194.198,252.562 193.434,254.562L191.511,252.491Z" style="fill:rgb(236,235,236);"/>
                <path d="M265.549,218.149L267.515,218.397L266.231,220.931C264.258,220.623 264.75,219.954 265.549,218.149Z" style="fill:rgb(234,234,234);"/>
                <path d="M510.203,412.879C512.247,411.49 512.726,410.616 514.188,412.687C514.802,413.558 511.56,413.732 511.315,413.745L510.203,412.879Z" style="fill:rgb(239,239,240);"/>
                <path d="M737.5,243.005C737.803,243.247 741.167,245.939 741.083,246.268C740.955,246.761 737.846,245.854 737.455,245.498C736.306,244.452 736.994,244.39 737.5,243.005Z" style="fill:rgb(254,254,254);"/>
                <path d="M699.467,522.696C700.279,521.374 699.851,521.349 700.685,519.973L702.307,520.089L701.441,522.945L699.467,522.696Z" style="fill:rgb(244,244,244);"/>
                <path d="M608.566,471.174L610.488,471.558C610.103,472.372 609.718,473.186 609.333,474.001C607.979,473.717 608.223,473.515 607.667,472.365L608.566,471.174Z" style="fill:rgb(236,237,236);"/>
                <path d="M706.46,523.774C705.864,522.8 705.268,521.825 704.673,520.851C705.679,521.024 705.528,520.797 706.5,520.964C706.742,521.005 706.57,521.18 707.448,523.884L706.46,523.774Z" style="fill:rgb(248,248,248);"/>
                <path d="M151.277,134.427C152.905,134.632 152.739,134.566 154.149,135.403C152.444,136.611 152.494,136.263 150.609,136.53L151.277,134.427Z" style="fill:rgb(242,242,243);"/>
                <path d="M150.793,193.397L151.882,196.36C151.084,196.105 150.173,196.801 149.375,196.547C149.111,196.463 148.574,196.292 150.793,193.397Z" style="fill:rgb(239,239,239);"/>
                <path d="M600.553,469.3L602.428,469.782C601.952,470.688 601.476,471.594 601,472.501C600.042,470.981 599.763,470.997 600.553,469.3Z" style="fill:rgb(235,236,235);"/>
                <path d="M711.5,571.79C711.878,571.915 718.566,574.117 715.613,574.599C713.333,574.972 713.721,573.995 711.5,571.79Z" style="fill:rgb(254,254,254);"/>
                <path d="M631.346,468.99C633.127,469.16 634.909,469.33 636.691,469.5C632.717,470.123 632.911,470.153 631.452,470.239C631.416,469.822 631.381,469.406 631.346,468.99Z" style="fill:rgb(252,252,252);"/>
                <path d="M647.491,794.504C649.451,793.361 650.341,792.286 650.779,794.562C650.824,794.793 650.968,795.543 648.077,795.699L647.491,794.504Z" style="fill:rgb(238,238,238);"/>
                <path d="M635.026,760.5C635.185,760.769 645.997,779.052 635.853,764.322C633.333,760.663 634.715,760.466 635.026,760.5Z" style="fill:rgb(252,252,252);"/>
                <path d="M520.465,424.547L522.703,426.231C520.62,427.229 519.644,426.713 520.465,424.547Z" style="fill:rgb(226,226,226);"/>
                <path d="M584.525,177.509L583.752,179.594L582.637,178.667C582.42,177.895 582.203,177.123 581.986,176.351C583.476,176.713 583.304,176.693 584.525,177.509Z" style="fill:rgb(239,239,239);"/>
                <path d="M684.433,519.846C686.048,518.593 685.886,518.688 687.739,517.86C687.695,518.233 687.895,518.076 687.84,518.545C687.822,518.698 687.84,518.545 687.511,520.444L684.433,519.846Z" style="fill:rgb(236,236,236);"/>
                <path d="M309.323,216.054C308.837,217.842 310.367,219.146 308.58,218.786C308.36,218.742 308.416,218.658 306.366,217.062L309.323,216.054Z" style="fill:rgb(224,224,224);"/>
                <path d="M631.391,168.684L633.721,170.156C631.687,171.188 630.588,170.841 631.391,168.684Z" style="fill:rgb(225,225,225);"/>
                <path d="M478.823,199.525L478.431,203.495C477.072,201.267 476.568,200.757 478.823,199.525Z" style="fill:rgb(235,236,235);"/>
                <path d="M618.379,498.705L620.74,500.075C618.666,501.178 617.603,500.785 618.379,498.705Z" style="fill:rgb(229,229,229);"/>
                <path d="M241.69,203.045C241.819,203.182 245.275,206.884 240.66,205.159C240.484,205.093 236.893,202.981 241.69,203.045Z" style="fill:rgb(254,254,254);"/>
                <path d="M634.854,766.341C633.656,767.64 633.439,769.264 632.794,767.567C632.794,767.567 631.42,766.395 631.301,766.293C633.115,766.043 632.997,765.948 634.854,766.341Z" style="fill:rgb(6,6,7);"/>
                <path d="M595.916,652.421L596.513,655.497C595.849,655.222 595.022,655.849 594.358,655.575C594.099,655.467 593.575,655.25 595.916,652.421Z" style="fill:rgb(222,223,222);"/>
                <path d="M481.116,201.458C482.526,203.205 482.828,203.065 482.501,205.275C481.933,205.03 481.365,204.785 480.797,204.54L481.116,201.458Z" style="fill:rgb(237,237,237);"/>
                <path d="M701.51,470.529C701.226,471.175 701.82,472 701.535,472.646C701.423,472.901 701.204,473.397 698.416,471.112L701.51,470.529Z" style="fill:rgb(243,243,243);"/>
                <path d="M623.325,739.573C623.509,739.482 625.625,738.437 625.625,738.437C626.306,738.866 624.341,741.411 624.17,741.634L623.325,739.573Z" style="fill:rgb(236,236,236);"/>
                <path d="M486.123,175.396C486.255,175.571 487.774,177.593 487.774,177.593C487.813,177.8 487.774,177.593 485.284,178.441L486.123,175.396Z" style="fill:rgb(229,230,230);"/>
                <path d="M462.242,359.417C462.527,359.822 462.919,360.142 463.204,360.547C464.293,362.094 463.06,361.814 461.227,362.392L462.242,359.417Z" style="fill:rgb(237,237,237);"/>
                <path d="M715.446,524.939C715.611,524.798 717.5,523.182 717.5,523.182C717.689,523.136 717.5,523.182 718.516,525.396L715.446,524.939Z" style="fill:rgb(235,235,235);"/>
                <path d="M680.514,473.627C680.432,473.802 679.5,475.817 679.5,475.817C679.289,475.764 679.5,475.817 677.447,474.038L680.514,473.627Z" style="fill:rgb(235,235,235);"/>
                <path d="M606.45,470.729L608.566,471.174L607.667,472.365C606.889,472.577 606.111,472.789 605.333,473.001C605.705,472.243 606.078,471.486 606.45,470.729Z" style="fill:rgb(235,235,235);"/>
                <path d="M584.414,460.699C584.609,459.632 584.805,458.566 585,457.499C586.082,459.213 588.588,459.41 586.5,459.875C585.326,460.137 585.58,460.239 584.414,460.699Z" style="fill:rgb(251,251,251);"/>
                <path d="M487.282,161.423L486.571,163.522L485.646,162.668C485.416,161.896 485.186,161.124 484.956,160.351C486.265,160.655 486.134,160.6 487.282,161.423Z" style="fill:rgb(237,237,237);"/>
                <path d="M424.531,370.295L425.509,370.44C424.648,372.623 424.587,374.683 423.437,372.625C423.337,372.445 423.437,372.625 424.531,370.295Z" style="fill:rgb(242,242,242);"/>
                <path d="M614.355,713.545C614.782,713.33 615.037,712.851 615.464,712.636C618.59,711.064 615.184,715.458 615.035,715.65L614.355,713.545Z" style="fill:rgb(237,238,238);"/>
                <path d="M649.36,798.562C649.542,798.474 651.625,797.463 651.625,797.463C652.305,797.844 650.399,800.397 650.234,800.619L649.36,798.562Z" style="fill:rgb(232,231,232);"/>
                <path d="M162.357,150.679C162.436,154.252 162.563,154.748 162.344,154.531C162.344,154.531 161.09,150.987 160.981,150.679C161.44,150.679 161.899,150.679 162.357,150.679Z" style="fill:rgb(253,253,253);"/>
                <path d="M610.488,471.558L612.582,472.007C611.013,473.33 611.197,473.25 609.333,474.001C609.718,473.186 610.103,472.372 610.488,471.558Z" style="fill:rgb(231,232,232);"/>
                <path d="M201.609,201.287L203.609,202.261C202.722,202.65 199.873,204.859 201.609,201.287Z" style="fill:rgb(229,229,229);"/>
                <path d="M332.444,109.853C332.608,109.72 334.5,108.186 334.5,108.186C334.5,108.186 335.449,110.12 335.532,110.288L332.444,109.853Z" style="fill:rgb(218,219,219);"/>
                <path d="M641.5,770.958C646.151,772.878 641.737,773.34 641.736,773.339C640.77,772.299 641.257,772.243 641.5,770.958Z" style="fill:rgb(254,254,255);"/>
                <path d="M231.473,211.602L233.586,212.179L232.667,213.361C231.032,213.576 230.709,213.157 231.473,211.602Z" style="fill:rgb(231,232,232);"/>
                <path d="M586.696,559.481C592.519,555.824 586.962,561.361 586.848,561.474L586.696,559.481Z" style="fill:rgb(238,238,238);"/>
                <path d="M674.296,468.914C675.697,469.109 677.099,469.305 678.5,469.5C674.92,470.121 675.003,470.143 674.281,470.179C674.286,469.757 674.291,469.336 674.296,468.914Z" style="fill:rgb(252,252,252);"/>
                <path d="M609.5,683.867C612.776,687.142 610.85,687.53 610.545,687.544C609.953,687.573 609.537,684.17 609.5,683.867Z" style="fill:rgb(254,254,254);"/>
                <path d="M481.29,183.459L480.899,185.57C480.79,185.437 476.859,180.67 481.29,183.459Z" style="fill:rgb(239,239,239);"/>
                <path d="M674.296,468.914C674.291,469.336 674.286,469.757 674.281,470.179C673.04,470.264 671.799,470.35 670.558,470.435C671.821,468.529 672.131,469.255 674.296,468.914Z" style="fill:rgb(252,253,253);"/>
                <path d="M572.54,136.41L574.573,137.336C574.407,137.448 572.5,138.736 572.5,138.736C570.664,139.056 571.744,137.976 572.54,136.41Z" style="fill:rgb(230,231,231);"/>
                <path d="M761.5,259.957C764.111,261.785 763.256,263.426 762.425,262.62C761.295,261.524 761.604,261.485 761.5,259.957Z" style="fill:rgb(254,254,254);"/>
                <path d="M245.5,306.823C245.724,306.894 259.628,311.291 247.54,308.934C245.778,308.59 245.672,308.568 245.5,306.823Z" style="fill:rgb(254,254,254);"/>
                <path d="M355.447,112.911C357.066,111.637 357.621,111.312 358.519,113.313L355.447,112.911Z" style="fill:rgb(217,217,219);"/>
                <path d="M219.568,208.282L221.399,208.837L219.728,210.683C219.464,210.366 218.757,210.918 218.493,210.601C218.362,210.444 218.493,210.601 219.568,208.282Z" style="fill:rgb(226,226,226);"/>
                <path d="M165.5,161.96C167.543,165.815 166.838,166.08 166.5,166.069C164.551,166.006 165.423,162.289 165.5,161.96Z" style="fill:rgb(253,253,253);"/>
                <path d="M480.48,369.414L481.418,369.165C481.535,370.983 482.247,371.58 480.5,371.751C478.683,371.928 479.732,371.02 480.48,369.414Z" style="fill:rgb(246,246,246);"/>
                <path d="M590.916,602.455C597.59,599.51 591.341,604.452 591.2,604.545L590.916,602.455Z" style="fill:rgb(239,239,240);"/>
                <path d="M685.22,467.944C687.629,468.298 689,466.104 689,468.5C689,470.896 687.629,468.702 685.22,469.056L685.22,467.944Z" style="fill:rgb(252,252,252);"/>
                <path d="M146.907,181.395C143.18,183.103 144.157,180.537 144.349,180.433C144.541,180.328 144.349,180.433 146.907,181.395Z" style="fill:rgb(250,251,250);"/>
                <path d="M412.5,371.971C412.624,371.989 419.884,373.217 413.5,373.177C412.437,373.17 412.575,372.932 412.5,371.971Z" style="fill:rgb(254,254,254);"/>
                <path d="M615.5,466.898C618.165,467.356 621.336,467.576 618.572,468.01C616.525,468.332 615.644,469.083 615.5,466.898Z" style="fill:rgb(253,253,252);"/>
                <path d="M655.5,507.794C655.712,507.881 669.14,514.312 657.613,509.723C656.223,509.169 656.676,508.868 655.5,507.794Z" style="fill:rgb(254,254,254);"/>
                <path d="M284.5,331.108C288.838,331.772 288.738,332.399 288.542,332.685C287.753,333.842 287.57,332.943 284.5,331.108Z" style="fill:rgb(254,254,254);"/>
                <path d="M745.491,586.542C745.415,586.386 741.377,577.564 746.336,584.537C746.439,584.682 746.336,584.537 746.427,586.767L745.491,586.542Z" style="fill:rgb(249,249,249);"/>
                <path d="M821.521,529.555C819.185,531.163 819.147,531.2 816.477,530.096C818.158,529.916 819.84,529.735 821.521,529.555Z" style="fill:rgb(239,239,240);"/>
                <path d="M664.491,472.285C665.971,470.446 666.293,471.008 668.487,472.092L664.491,472.285Z" style="fill:rgb(202,203,203);"/>
                <path d="M579.177,478.512L579.222,479.509C577.702,478.871 577.424,479.247 576.972,477.656C578.208,477.719 578.052,477.668 579.177,478.512Z" style="fill:rgb(237,238,237);"/>
                <path d="M378.521,115.154C377.678,113.77 376.853,112.999 378.5,113C378.695,113 378.5,113 379.516,115.213L378.521,115.154Z" style="fill:rgb(233,233,233);"/>
                <path d="M559.5,444C559.638,444.115 564.924,448.566 560.608,445.959C558.486,444.677 559.544,444.325 559.5,444Z" style="fill:rgb(253,253,253);"/>
                <path d="M470.504,113.572C470.436,113.412 469.649,111.569 469.649,111.569C470.778,109.837 470.669,111.631 471.5,113.506L470.504,113.572Z" style="fill:rgb(244,244,244);"/>
                <path d="M480.797,204.54C481.365,204.785 481.933,205.03 482.501,205.275C481.858,205.687 481.215,206.098 480.572,206.509L480.797,204.54Z" style="fill:rgb(242,242,242);"/>
                <path d="M774.498,523.95L779.497,523.805C777.001,524.558 777.054,524.947 774.498,523.95Z" style="fill:rgb(254,254,255);"/>
                <path d="M213.5,282.888C216.739,283.566 215.884,284.454 215.728,284.617C214.042,286.371 213.535,283.111 213.5,282.888Z" style="fill:rgb(254,254,255);"/>
                <path d="M602.5,140.81C603.091,142.596 603.157,143.511 601.438,142.937C599.885,142.419 601.771,142.27 602.5,140.81Z" style="fill:rgb(254,254,255);"/>
                <path d="M539.5,442.051C539.706,442.137 552.974,448.064 541.549,443.947C540.178,443.453 540.661,443.126 539.5,442.051Z" style="fill:rgb(254,254,254);"/>
                <path d="M163.5,157C163.591,157.167 169.149,168.012 163.625,159.375C162.915,158.265 163.207,158.347 163.5,157Z" style="fill:rgb(253,253,253);"/>
                <path d="M434.5,374C436.343,374.376 438.438,374.648 436.5,375C435.236,375.231 435.42,374.921 434.5,374Z" style="fill:rgb(253,253,253);"/>
                <path d="M730.5,532.243C731.875,532.245 738.371,532.685 734.522,533.056C731.58,533.34 731.796,532.505 730.5,532.243Z" style="fill:rgb(254,254,254);"/>
                <path d="M348.5,356.952C351.649,357.85 350.76,358.682 350.546,358.695C349.2,358.78 349.499,358.304 348.5,356.952Z" style="fill:rgb(254,254,254);"/>
                <path d="M394.5,366.813C395.797,367.341 396.909,367.874 395.5,368.036C394.47,368.155 394.464,367.983 394.5,366.813Z" style="fill:rgb(253,253,253);"/>
                <path d="M480.121,174.525C479.918,175.497 479.715,176.469 479.511,177.442C479.066,175.76 478.83,175.645 480.121,174.525Z" style="fill:rgb(254,254,254);"/>
                <path d="M390.5,121C390.612,121.018 397.727,122.945 391.5,122C390.662,121.873 391.023,121.523 390.5,121Z" style="fill:rgb(253,253,253);"/>
                <path d="M612.5,498C612.588,498.08 617.621,502.831 612.592,499.475C611.29,498.607 612.527,498.427 612.5,498Z" style="fill:rgb(254,254,254);"/>
                <path d="M477.5,183.792C477.423,186.144 477.342,188.908 476.979,186.5C476.653,184.334 477.356,184.541 477.5,183.792Z" style="fill:rgb(254,254,254);"/>
                <path d="M370.5,363.276C370.738,363.256 375.386,362.877 373.388,364.032C372.421,364.591 372.433,364.115 370.5,363.276Z" style="fill:rgb(254,254,254);"/>
                <path d="M629.5,748.951C629.649,749.128 631.285,751.066 630.687,751.581C629.476,752.624 629.934,751.216 629.5,748.951Z" style="fill:rgb(253,253,253);"/>
                <path d="M581.881,475.466C585.344,473.938 581.998,476.429 581.927,476.467L581.881,475.466Z" style="fill:rgb(243,243,243);"/>
                <path d="M712.313,528.912L713.734,528.936C713.84,528.979 715.063,529.478 715.063,529.478C714.887,531.566 714.142,529.7 712.313,528.912Z" style="fill:rgb(253,253,253);"/>
                <path d="M465.5,119.296C465.668,119.268 476.45,118.137 467.5,120.036C467.5,120.036 465.66,119.355 465.5,119.296Z" style="fill:rgb(253,253,253);"/>
                <path d="M275.5,324.95C275.633,325.006 280.46,327.053 276.425,326.5C275.295,326.345 275.517,326.136 275.5,324.95Z" style="fill:rgb(254,254,254);"/>
                <path d="M597.036,624.5C596.654,625.842 596.166,626.935 595.919,625.5C595.741,624.471 595.965,624.461 597.036,624.5Z" style="fill:rgb(253,253,253);"/>
                <path d="M384.5,112.25C387.209,111.84 386.722,113.022 386.551,113.068C386.381,113.113 386.551,113.068 384.5,112.25Z" style="fill:rgb(254,254,254);"/>
                <path d="M703.5,579.133C705.285,579.608 705.085,579.7 706.357,580.841C705.404,580.272 704.452,579.702 703.5,579.133Z" style="fill:rgb(254,254,254);"/>
                <path d="M702.5,463.25C702.812,463.334 703.149,463.047 703.461,463.131C704.118,463.308 704.395,464.376 704.274,464.476C704.141,464.586 704.274,464.476 702.5,463.25Z" style="fill:rgb(254,254,254);"/>
                <path d="M477.049,189.5C475.808,189.668 474.797,189.758 475.797,188.797C475.879,188.717 475.797,188.797 477.049,189.5Z" style="fill:rgb(254,254,255);"/>
                <path d="M680.625,470.198L679.525,469.51L680.701,469.08C681.165,469.769 681.169,469.709 680.625,470.198Z" style="fill:rgb(252,252,252);"/>
                <path d="M454.824,357.761C455.985,356.889 455.633,355.436 456.495,356.505C456.796,356.878 456.074,357.565 456.375,357.938L454.824,357.761Z" style="fill:rgb(254,254,254);"/>
                <path d="M458.521,371.496L459.922,371.631L460.743,371.961L459.252,372.535L458.521,371.496Z" style="fill:rgb(110,111,109);"/>
                <path d="M230.517,102.745C231.801,101.731 232.194,99.834 232.094,101.5C231.987,103.269 230.594,102.685 230.517,102.745Z" style="fill:rgb(254,254,254);"/>
                <path d="M332.505,115.472L333.255,114.541L334.446,115.833L332.505,115.472Z" style="fill:rgb(115,116,115);"/>
                <path d="M771.451,523.919L774.498,523.95C772.91,524.33 772.986,524.3 771.451,523.919Z" style="fill:rgb(254,254,255);"/>
                <path d="M187.5,254.951C187.559,255.041 189.093,257.352 187.726,256.274C187.641,256.208 187.726,256.274 187.5,254.951Z" style="fill:rgb(253,253,253);"/>
                <path d="M367.692,122.398C368.331,121.681 368.011,120.56 368.5,121.491C368.92,122.292 367.793,122.074 368.157,122.768L367.692,122.398Z" style="fill:rgb(254,254,254);"/>
                <path d="M184.5,251.687C185.034,252.866 185.622,253.905 184.613,253.06C184.528,252.99 184.613,253.06 184.5,251.687Z" style="fill:rgb(253,253,253);"/>
                <path d="M147.5,188.951C147.515,190.009 148.682,190.516 147.522,190.516C146.371,190.516 147.515,189.996 147.5,188.951Z" style="fill:rgb(253,253,253);"/>
                <path d="M583.75,585.5C583.73,585.62 583.5,587 583.5,587C582.46,586.924 583.576,586.545 583.75,585.5Z" style="fill:rgb(254,254,254);"/>
                <path d="M805.5,525.25C805.62,525.27 807,525.5 807,525.5C806.924,526.54 806.545,525.424 805.5,525.25Z" style="fill:rgb(254,254,254);"/>
                <path d="M146.5,185.951C146.524,186.338 146.524,186.334 146.5,185.951Z" style="fill:rgb(253,253,253);"/>
                <path d="M316.5,343.646C316.429,344.383 317.414,343.571 317.34,344.335C317.251,345.26 317.202,344.222 316.5,343.646Z" style="fill:rgb(252,252,252);"/>
                <path d="M168.062,167.5C167.37,167.654 168.238,168.339 167.53,168.496C166.553,168.713 167.602,168.36 168.062,167.5Z" style="fill:rgb(253,253,253);"/>
            </g>
        </g>
    </g>
</svg>
